<?xml version="1.0" encoding="UTF-8" standalone="no"?>
<!-- Generator: Adobe Illustrator 19.2.1, SVG Export Plug-In . SVG Version: 6.00 Build 0)  -->

<svg
   xmlns:dc="http://purl.org/dc/elements/1.1/"
   xmlns:cc="http://creativecommons.org/ns#"
   xmlns:rdf="http://www.w3.org/1999/02/22-rdf-syntax-ns#"
   xmlns:svg="http://www.w3.org/2000/svg"
   xmlns="http://www.w3.org/2000/svg"
   xmlns:sodipodi="http://sodipodi.sourceforge.net/DTD/sodipodi-0.dtd"
   xmlns:inkscape="http://www.inkscape.org/namespaces/inkscape"
   version="1.1"
   x="0px"
   y="0px"
   viewBox="0 0 48.154293 352.00001"
   enable-background="new 0 0 48 352"
   xml:space="preserve"
   id="svg2"
   inkscape:version="0.48.4 r9939"
   width="100%"
   height="100%"
   sodipodi:docname="icon_page.svg"><metadata
     id="metadata185"><rdf:RDF><cc:Work
         rdf:about=""><dc:format>image/svg+xml</dc:format><dc:type
           rdf:resource="http://purl.org/dc/dcmitype/StillImage" /></cc:Work></rdf:RDF></metadata><defs
     id="defs183" /><sodipodi:namedview
     pagecolor="#e2e2e2"
     bordercolor="#666666"
     borderopacity="1"
     objecttolerance="10"
     gridtolerance="10"
     guidetolerance="10"
     inkscape:pageopacity="1"
     inkscape:pageshadow="2"
     inkscape:window-width="830"
     inkscape:window-height="861"
     id="namedview181"
     showgrid="false"
     showguides="true"
     inkscape:guide-bbox="true"
     fit-margin-top="0"
     fit-margin-left="0"
     fit-margin-right="0"
     fit-margin-bottom="0"
     inkscape:zoom="5.8224237"
     inkscape:cx="22.620595"
     inkscape:cy="319.79412"
     inkscape:window-x="0"
     inkscape:window-y="23"
     inkscape:window-maximized="0"
     inkscape:current-layer="user"><sodipodi:guide
       orientation="0,1"
       position="90.80397,351.87923"
       id="guide3162" /><sodipodi:guide
       orientation="1,0"
       position="0.15428964,336.26605"
       id="guide3164" /><sodipodi:guide
       orientation="1,0"
       position="16.000507,311.09853"
       id="guide3166" /><sodipodi:guide
       orientation="0,1"
       position="5.5140393,319.95376"
       id="guide3168" /><sodipodi:guide
       orientation="0,1"
       position="26.964716,303.82536"
       id="guide3902" /><sodipodi:guide
       orientation="0,1"
       position="0.15428964,288.19613"
       id="guide3131" /></sodipodi:namedview><g
     id="g3172"
     transform="translate(0.15429001,0)"><g
       id="youtube"><g
         id="XMLID_178_"><path
           style="fill:#cd201f"
           inkscape:connector-curvature="0"
           d="m 15.99759,248 c 0,5.66406 0,5.66406 -8,5.66406 -8,0 -8,0 -8,-5.66406 0,-5.66406 0,-5.66406 8,-5.66406 8,0 8,0 8,5.66406 z m -5,0 -5,-3 v 6 l 5,-3 z"
           id="XMLID_179_" /></g><g
         id="XMLID_154_"><path
           inkscape:connector-curvature="0"
           d="m 31.99759,248 c 0,5.66406 0,5.66406 -8,5.66406 -8,0 -8,0 -8,-5.66406 0,-5.66406 0,-5.66406 8,-5.66406 8,0 8,0 8,5.66406 z m -5,0 -5,-3 v 6 l 5,-3 z"
           id="XMLID_155_" /></g><g
         id="XMLID_150_"><path
           style="fill:#ffffff"
           inkscape:connector-curvature="0"
           d="m 48,248 c 0,5.66406 0,5.66406 -8,5.66406 -8,0 -8,0 -8,-5.66406 0,-5.66406 0,-5.66406 8,-5.66406 8,0 8,0 8,5.66406 z m -5,0 -5,-3 v 6 l 5,-3 z"
           id="XMLID_151_" /></g><g
         id="XMLID_187_"><path
           style="fill:#3f729b"
           inkscape:connector-curvature="0"
           d="m 16,258.33624 v 11.32812 c 0,1.28906 -1.04688,2.33594 -2.33594,2.33594 H 2.33594 C 1.04688,272.00031 0,270.95343 0,269.66437 v -11.32812 c 0,-1.28906 1.04688,-2.33594 2.33594,-2.33594 h 11.32812 c 1.28906,0 2.33594,1.04687 2.33594,2.33593 z m -1.66406,4.66407 H 12.5625 c 0.07031,0.32031 0.10156,0.65625 0.10156,1 0,2.57812 -2.08594,4.66406 -4.66406,4.66406 -2.57812,0 -4.66406,-2.08594 -4.66406,-4.66406 0,-0.34375 0.03125,-0.67969 0.10156,-1 H 1.66406 v 7 c 0,0.1875 0.14844,0.33594 0.33594,0.33594 h 12 c 0.1875,0 0.33594,-0.14844 0.33594,-0.33594 v -7 z m -9.33594,1 c 0,1.65625 1.34375,3 3,3 1.65625,0 3,-1.34375 3,-3 0,-1.65625 -1.34375,-3 -3,-3 -1.65625,0 -3,1.34375 -3,3 z m 9.33594,-6 c 0,-0.1875 -0.14844,-0.33594 -0.33594,-0.33594 h -2 c -0.1875,0 -0.33594,0.14844 -0.33594,0.33594 v 2 c 0,0.1875 0.14844,0.33594 0.33594,0.33594 h 2 c 0.1875,0 0.33594,-0.14844 0.33594,-0.33594 v -2 z"
           id="XMLID_188_" /></g><g
         id="XMLID_186_"><path
           inkscape:connector-curvature="0"
           d="m 32,258.33624 v 11.32812 c 0,1.28906 -1.04688,2.33594 -2.33594,2.33594 H 18.33594 C 17.04688,272.0003 16,270.95342 16,269.66436 v -11.32812 c 0,-1.28906 1.04688,-2.33594 2.33594,-2.33594 h 11.32812 c 1.28906,1e-5 2.33594,1.04688 2.33594,2.33594 z m -1.66406,4.66407 H 28.5625 c 0.07031,0.32031 0.10156,0.65625 0.10156,1 0,2.57812 -2.08594,4.66406 -4.66406,4.66406 -2.57812,0 -4.66406,-2.08594 -4.66406,-4.66406 0,-0.34375 0.03125,-0.67969 0.10156,-1 h -1.77344 v 7 c 0,0.1875 0.14844,0.33594 0.33594,0.33594 h 12 c 0.1875,0 0.33594,-0.14844 0.33594,-0.33594 v -7 z m -9.33594,1 c 0,1.65625 1.34375,3 3,3 1.65625,0 3,-1.34375 3,-3 0,-1.65625 -1.34375,-3 -3,-3 -1.65625,0 -3,1.34375 -3,3 z m 9.33594,-6 c 0,-0.1875 -0.14844,-0.33594 -0.33594,-0.33594 h -2 c -0.1875,0 -0.33594,0.14844 -0.33594,0.33594 v 2 c 0,0.1875 0.14844,0.33594 0.33594,0.33594 h 2 c 0.1875,0 0.33594,-0.14844 0.33594,-0.33594 v -2 z"
           id="XMLID_193_" /></g><g
         id="XMLID_215_"><path
           style="fill:#ffffff"
           inkscape:connector-curvature="0"
           d="m 48,258.33624 v 11.32812 c 0,1.28906 -1.04688,2.33594 -2.33594,2.33594 H 34.33594 C 33.04688,272.0003 32,270.95342 32,269.66436 v -11.32812 c 0,-1.28906 1.04688,-2.33594 2.33594,-2.33594 h 11.32812 c 1.28906,1e-5 2.33594,1.04688 2.33594,2.33594 z m -1.66406,4.66407 H 44.5625 c 0.07031,0.32031 0.10156,0.65625 0.10156,1 0,2.57812 -2.08594,4.66406 -4.66406,4.66406 -2.57812,0 -4.66406,-2.08594 -4.66406,-4.66406 0,-0.34375 0.03125,-0.67969 0.10156,-1 h -1.77344 v 7 c 0,0.1875 0.14844,0.33594 0.33594,0.33594 h 12 c 0.1875,0 0.33594,-0.14844 0.33594,-0.33594 v -7 z m -9.33594,1 c 0,1.65625 1.34375,3 3,3 1.65625,0 3,-1.34375 3,-3 0,-1.65625 -1.34375,-3 -3,-3 -1.65625,0 -3,1.34375 -3,3 z m 9.33594,-6 c 0,-0.1875 -0.14844,-0.33594 -0.33594,-0.33594 h -2 c -0.1875,0 -0.33594,0.14844 -0.33594,0.33594 v 2 c 0,0.1875 0.14844,0.33594 0.33594,0.33594 h 2 c 0.1875,0 0.33594,-0.14844 0.33594,-0.33594 v -2 z"
           id="XMLID_216_" /></g><g
         id="XMLID_233_"><path
           style="fill:#cc2127"
           inkscape:connector-curvature="0"
           d="m 14.1875,277.25827 c 0,3.60938 -2,6.29688 -4.94531,6.29688 -1,0 -1.92969,-0.51562 -2.25781,-1.125 0,0 -0.52344,2.10938 -0.64844,2.51562 -0.39062,1.44531 -1.55469,2.89062 -1.64844,3 -0.07812,0.0937 -0.20312,0.0547 -0.22656,-0.0391 -0.01562,-0.1875 -0.3125,-2.01562 0.03906,-3.5 0.16406,-0.74219 1.16406,-5 1.16406,-5 0,0 -0.27344,-0.59375 -0.27344,-1.46094 0,-1.375 0.77344,-2.375 1.75781,-2.375 0.83594,0 1.24219,0.61719 1.24219,1.375 0,0.83594 -0.53906,2.09375 -0.82031,3.25781 -0.21875,0.98438 0.5,1.78125 1.46875,1.78125 1.74219,0 2.90625,-2.24219 2.90625,-4.89062 0,-2.02344 -1.35156,-3.52344 -3.8125,-3.52344 -2.79687,0 -4.53906,2.07812 -4.53906,4.39062 0,0.82031 0.24219,1.375 0.60938,1.82031 0.16406,0.20312 0.1875,0.27344 0.13281,0.5 -0.03906,0.17969 -0.14844,0.58594 -0.1875,0.73438 -0.05469,0.24219 -0.24219,0.32031 -0.46094,0.24219 -1.28125,-0.53906 -1.875,-1.94531 -1.875,-3.51562 0,-2.60938 2.1875,-5.74219 6.55469,-5.74219 3.52344,0 5.82031,2.53906 5.82031,5.25781 z"
           id="XMLID_234_" /></g><g
         id="XMLID_230_"><path
           inkscape:connector-curvature="0"
           d="m 30.1875,277.25827 c 0,3.60938 -2,6.29688 -4.94531,6.29688 -1,0 -1.92969,-0.51562 -2.25781,-1.125 0,0 -0.52344,2.10938 -0.64844,2.51562 -0.39062,1.44531 -1.55469,2.89062 -1.64844,3 -0.07812,0.0937 -0.20312,0.0547 -0.22656,-0.0391 -0.01562,-0.1875 -0.3125,-2.01562 0.03906,-3.5 0.16406,-0.74219 1.16406,-5 1.16406,-5 0,0 -0.27344,-0.59375 -0.27344,-1.46094 0,-1.375 0.77344,-2.375 1.75781,-2.375 0.83594,0 1.24219,0.61719 1.24219,1.375 0,0.83594 -0.53906,2.09375 -0.82031,3.25781 -0.21875,0.98438 0.5,1.78125 1.46875,1.78125 1.74219,0 2.90625,-2.24219 2.90625,-4.89062 0,-2.02344 -1.35156,-3.52344 -3.8125,-3.52344 -2.79688,0 -4.53906,2.07812 -4.53906,4.39062 0,0.82031 0.24219,1.375 0.60938,1.82031 0.16406,0.20312 0.1875,0.27344 0.13281,0.5 -0.03906,0.17969 -0.14844,0.58594 -0.1875,0.73438 -0.05469,0.24219 -0.24219,0.32031 -0.46094,0.24219 -1.28125,-0.53906 -1.875,-1.94531 -1.875,-3.51562 0,-2.60938 2.1875,-5.74219 6.55469,-5.74219 3.52344,0 5.82031,2.53906 5.82031,5.25781 z"
           id="XMLID_236_" /></g><g
         id="XMLID_238_"><path
           style="fill:#ffffff"
           inkscape:connector-curvature="0"
           d="m 46.1875,277.25827 c 0,3.60938 -2,6.29688 -4.94531,6.29688 -1,0 -1.92969,-0.51562 -2.25781,-1.125 0,0 -0.52344,2.10938 -0.64844,2.51562 -0.39062,1.44531 -1.55469,2.89062 -1.64844,3 -0.07812,0.0937 -0.20312,0.0547 -0.22656,-0.0391 -0.01562,-0.1875 -0.3125,-2.01562 0.03906,-3.5 0.16406,-0.74219 1.16406,-5 1.16406,-5 0,0 -0.27344,-0.59375 -0.27344,-1.46094 0,-1.375 0.77344,-2.375 1.75781,-2.375 0.83594,0 1.24219,0.61719 1.24219,1.375 0,0.83594 -0.53906,2.09375 -0.82031,3.25781 -0.21875,0.98438 0.5,1.78125 1.46875,1.78125 1.74219,0 2.90625,-2.24219 2.90625,-4.89062 0,-2.02344 -1.35156,-3.52344 -3.8125,-3.52344 -2.79688,0 -4.53906,2.07812 -4.53906,4.39062 0,0.82031 0.24219,1.375 0.60938,1.82031 0.16406,0.20312 0.1875,0.27344 0.13281,0.5 -0.03906,0.17969 -0.14844,0.58594 -0.1875,0.73438 -0.05469,0.24219 -0.24219,0.32031 -0.46094,0.24219 -1.28125,-0.53906 -1.875,-1.94531 -1.875,-3.51562 0,-2.60938 2.1875,-5.74219 6.55469,-5.74219 3.52343,0 5.82031,2.53906 5.82031,5.25781 z"
           id="XMLID_239_" /></g><g
         id="XMLID_242_"><path
           style="fill:#0077b5"
           inkscape:connector-curvature="0"
           d="M 1.98438,291.83228 H 1.96094 C 0.78125,291.83228 0,291.01978 0,289.99634 c 0,-1.03125 0.79688,-1.82812 2.01562,-1.82812 1.20312,0 1.96875,0.79688 1.98438,1.82812 0,1.02344 -0.78125,1.83594 -2.01562,1.83594 z m 1.67968,1.66406 v 10.33594 H 0.33594 V 293.49634 H 3.66406 z M 9,303.83228 H 5.66406 v -8 c 0,0 -0.05469,-1.98438 -0.05469,-2.33594 H 8.89062 L 9,294.92603 c 0.66406,-1 1.66406,-1.75781 3,-1.75781 2.33594,0 4,1.66406 4,4.66406 v 6 h -3.33594 v -5.66406 c 0,-1.67188 -0.8125,-2.33594 -1.8125,-2.33594 -1,0 -1.85156,0.66406 -1.85156,2 v 6 z"
           id="XMLID_243_" /></g><g
         id="XMLID_241_"><path
           inkscape:connector-curvature="0"
           d="m 17.98438,291.83228 h -0.02344 c -1.17969,0 -1.96094,-0.8125 -1.96094,-1.83594 0,-1.03125 0.79688,-1.82812 2.01562,-1.82812 1.20312,0 1.96875,0.79688 1.98438,1.82812 0,1.02344 -0.78125,1.83594 -2.01562,1.83594 z m 1.67968,1.66406 v 10.33594 h -3.32812 v -10.33594 h 3.32812 z M 25,303.83228 h -3.33594 v -8 c 0,0 -0.05469,-1.98438 -0.05469,-2.33594 h 3.28125 L 25,294.92603 c 0.66406,-1 1.66406,-1.75781 3,-1.75781 2.33594,0 4,1.66406 4,4.66406 v 6 h -3.33594 v -5.66406 c 0,-1.67188 -0.8125,-2.33594 -1.8125,-2.33594 -1,0 -1.85156,0.66406 -1.85156,2 v 6 z"
           id="XMLID_247_" /></g><g
         id="XMLID_251_"><path
           style="fill:#ffffff"
           inkscape:connector-curvature="0"
           d="m 33.98438,291.83228 h -0.02344 c -1.17969,0 -1.96094,-0.8125 -1.96094,-1.83594 0,-1.03125 0.79688,-1.82812 2.01562,-1.82812 1.20312,0 1.96875,0.79688 1.98438,1.82812 0,1.02344 -0.78125,1.83594 -2.01562,1.83594 z m 1.67968,1.66406 v 10.33594 h -3.32812 v -10.33594 h 3.32812 z M 41,303.83228 h -3.33594 v -8 c 0,0 -0.05469,-1.98438 -0.05469,-2.33594 h 3.28125 L 41,294.92603 c 0.66406,-1 1.66406,-1.75781 3,-1.75781 2.33594,0 4,1.66406 4,4.66406 v 6 h -3.33594 v -5.66406 c 0,-1.67188 -0.8125,-2.33594 -1.8125,-2.33594 -1,0 -1.85156,0.66406 -1.85156,2 v 6 z"
           id="XMLID_252_" /></g></g><g
       id="googleplus"><path
         style="fill:#dc4e41"
         inkscape:connector-curvature="0"
         id="path30"
         d="m 16,231.33333 h -1.66667 v -1.66666 H 13 v 1.66666 h -1.66667 v 1.33334 H 13 v 1.66666 h 1.33333 v -1.66666 H 16 M 5.33333,231 v 2.08 H 8.24 c -0.22333,1.25333 -1.31,2.16667 -2.90667,2.16667 -1.76,0 -3.19,-1.49001 -3.19,-3.25 0,-1.76001 1.43,-3.24667 3.19,-3.24667 0.79333,0 1.50333,0.27333 2.06333,0.80667 v 0.003 L 8.9,228.05667 c -0.92333,-0.86 -2.12667,-1.39 -3.56667,-1.39 C 2.38666,226.66667 0,229.05333 0,232 c 0,2.94667 2.38667,5.33333 5.33333,5.33333 3.08,0 5.12,-2.16666 5.12,-5.21333 0,-0.39 -0.03667,-0.76334 -0.10333,-1.12 H 5.33333 z" /><path
         inkscape:connector-curvature="0"
         id="path32"
         d="m 32,231.33333 h -1.66667 v -1.66666 H 29 v 1.66666 h -1.66667 v 1.33334 H 29 v 1.66666 h 1.33333 v -1.66666 H 32 M 21.33333,231 v 2.08 H 24.24 c -0.22333,1.25333 -1.31,2.16667 -2.90667,2.16667 -1.76,0 -3.19,-1.49001 -3.19,-3.25 0,-1.76001 1.43,-3.24667 3.19,-3.24667 0.79333,0 1.50333,0.27333 2.06333,0.80667 v 0.003 l 1.50334,-1.503 c -0.92333,-0.86 -2.12667,-1.39 -3.56667,-1.39 C 18.38666,226.66667 16,229.05333 16,232 c 0,2.94667 2.38667,5.33333 5.33333,5.33333 3.08,0 5.12,-2.16666 5.12,-5.21333 0,-0.39 -0.03667,-0.76334 -0.10333,-1.12 h -5.01667 z" /><path
         style="fill:#ffffff"
         inkscape:connector-curvature="0"
         id="path34"
         d="m 48,231.33333 h -1.66666 v -1.66666 H 45 v 1.66666 h -1.66666 v 1.33334 H 45 v 1.66666 h 1.33334 v -1.66666 H 48 M 37.33333,231 v 2.08 H 40.24 c -0.22334,1.25333 -1.31,2.16667 -2.90667,2.16667 -1.76,0 -3.19,-1.49001 -3.19,-3.25 0,-1.76001 1.43,-3.24667 3.19,-3.24667 0.79333,0 1.50333,0.27333 2.06333,0.80667 v 0.003 l 1.50334,-1.503 c -0.92333,-0.86 -2.12667,-1.39 -3.56667,-1.39 C 34.38667,226.66667 32,229.05333 32,232 c 0,2.94667 2.38667,5.33333 5.33333,5.33333 3.08,0 5.12,-2.16666 5.12,-5.21333 0,-0.39 -0.03667,-0.76334 -0.10333,-1.12 h -5.01667 z" /></g><g
       id="twitter"><g
         id="XMLID_223_"><path
           style="fill:#55acee"
           inkscape:connector-curvature="0"
           d="m 14.36719,212.73438 v 0.42969 c 0,4.33594 -3.29688,9.33594 -9.32812,9.33594 -1.85156,0 -3.59375,-0.40625 -5.03906,-1.33594 0.25781,0.0391 0.51562,0.0547 0.78125,0.0547 1.53125,0 2.96094,-0.66406 4.07031,-1.55469 -1.42188,-0.0156 -2.64844,-0.98438 -3.05469,-2.28125 0.20312,0.0391 0.40625,0.0625 0.60938,0.0625 0.29688,0 0.59375,-0.0391 0.875,-0.11719 -1.5,-0.29688 -2.63281,-1.625 -2.63281,-3.21875 v -0.0391 c 0.44531,0.24219 0.94531,0.39062 1.48438,0.40625 -0.89062,-0.59375 -1.46875,-1.59375 -1.46875,-2.71875 0,-0.60938 0.17188,-1.10938 0.44531,-1.59375 1.63281,1.98438 4.03906,3.21875 6.75781,3.36719 -0.05469,-0.23438 -0.07031,-0.5 -0.07031,-0.75781 0,-1.8125 1.46094,-3.27344 3.27344,-3.27344 0.94531,0 1.79688,0.40625 2.41406,1.03125 0.73438,-0.14844 1.44531,-0.42188 2.07031,-0.79688 -0.24219,0.76562 -0.75781,1.41406 -1.44531,1.82031 0.67188,-0.0781 1.29688,-0.25781 1.89062,-0.52344 -0.44532,0.67187 -1.00001,1.24219 -1.63282,1.70313 z"
           id="XMLID_224_" /></g><g
         id="XMLID_220_"><path
           inkscape:connector-curvature="0"
           d="m 30.36719,212.73438 v 0.42969 c 0,4.33594 -3.29688,9.33594 -9.32812,9.33594 -1.85156,0 -3.59375,-0.40625 -5.03906,-1.33594 0.25781,0.0391 0.51562,0.0547 0.78125,0.0547 1.53125,0 2.96094,-0.66406 4.07031,-1.55469 -1.42188,-0.0156 -2.64844,-0.98438 -3.05469,-2.28125 0.20312,0.0391 0.40625,0.0625 0.60938,0.0625 0.29688,0 0.59375,-0.0391 0.875,-0.11719 -1.5,-0.29688 -2.63281,-1.625 -2.63281,-3.21875 v -0.0391 c 0.44531,0.24219 0.94531,0.39062 1.48438,0.40625 -0.89062,-0.59375 -1.46875,-1.59375 -1.46875,-2.71875 0,-0.60938 0.17188,-1.10938 0.44531,-1.59375 1.63281,1.98438 4.03906,3.21875 6.75781,3.36719 -0.05469,-0.23438 -0.07031,-0.5 -0.07031,-0.75781 0,-1.8125 1.46094,-3.27344 3.27344,-3.27344 0.94531,0 1.79688,0.40625 2.41406,1.03125 0.73438,-0.14844 1.44531,-0.42188 2.07031,-0.79688 -0.24219,0.76562 -0.75781,1.41406 -1.44531,1.82031 0.67188,-0.0781 1.29688,-0.25781 1.89062,-0.52344 -0.44532,0.67187 -1.00001,1.24219 -1.63282,1.70313 z"
           id="XMLID_221_" /></g><g
         id="XMLID_217_"><path
           style="fill:#ffffff"
           inkscape:connector-curvature="0"
           d="m 46.36478,212.73438 v 0.42969 c 0,4.33594 -3.29688,9.33594 -9.32812,9.33594 -1.85156,0 -3.59375,-0.40625 -5.03906,-1.33594 0.25781,0.0391 0.51562,0.0547 0.78125,0.0547 1.53125,0 2.96094,-0.66406 4.07031,-1.55469 -1.42188,-0.0156 -2.64844,-0.98438 -3.05469,-2.28125 0.20312,0.0391 0.40625,0.0625 0.60938,0.0625 0.29688,0 0.59375,-0.0391 0.875,-0.11719 -1.5,-0.29688 -2.63281,-1.625 -2.63281,-3.21875 v -0.0391 c 0.44531,0.24219 0.94531,0.39062 1.48438,0.40625 -0.89062,-0.59375 -1.46875,-1.59375 -1.46875,-2.71875 0,-0.60938 0.17188,-1.10938 0.44531,-1.59375 1.63281,1.98438 4.03906,3.21875 6.75781,3.36719 -0.05469,-0.23438 -0.07031,-0.5 -0.07031,-0.75781 0,-1.8125 1.46094,-3.27344 3.27344,-3.27344 0.94531,0 1.79688,0.40625 2.41406,1.03125 0.73438,-0.14844 1.44531,-0.42188 2.07031,-0.79688 -0.24219,0.76562 -0.75781,1.41406 -1.44531,1.82031 0.67188,-0.0781 1.29688,-0.25781 1.89062,-0.52344 -0.44532,0.67187 -1.00001,1.24219 -1.63282,1.70313 z"
           id="XMLID_218_" /></g></g><g
       id="facebook"><g
         id="XMLID_140_"><path
           style="fill:#3b5998"
           inkscape:connector-curvature="0"
           d="m 16,177 v 14 c 0,0.54688 -0.45312,1 -1,1 h -4 v -6.21875 h 2 l 0.33594,-2.30469 H 11 v -1.8125 c 0,-0.65625 0.33594,-1.03125 1,-1.03125 h 1.5 v -2.07812 c 0,0 -0.67188,-0.10938 -1.64062,-0.10938 -2.19531,0 -3.30469,1.21875 -3.30469,3.03906 v 1.99219 h -2 v 2.30469 h 2 V 192 H 1 c -0.54688,0 -1,-0.45312 -1,-1 v -14 c 0,-0.54688 0.45312,-1 1,-1 h 14 c 0.54688,0 1,0.45312 1,1 z"
           id="XMLID_141_" /></g><g
         id="XMLID_137_"><path
           inkscape:connector-curvature="0"
           d="m 32,177 v 14 c 0,0.54688 -0.45312,1 -1,1 h -4 v -6.21875 h 2 l 0.33594,-2.30469 H 27 v -1.8125 c 0,-0.65625 0.33594,-1.03125 1,-1.03125 h 1.5 v -2.07812 c 0,0 -0.67188,-0.10938 -1.64062,-0.10938 -2.19531,0 -3.30469,1.21875 -3.30469,3.03906 v 1.99219 h -2 v 2.30469 h 2 V 192 H 17 c -0.54688,0 -1,-0.45312 -1,-1 v -14 c 0,-0.54688 0.45313,-1 1,-1 h 14 c 0.54688,0 1,0.45312 1,1 z"
           id="XMLID_138_" /></g><g
         id="XMLID_131_"><path
           style="fill:#ffffff"
           inkscape:connector-curvature="0"
           d="m 47.99759,177 v 14 c 0,0.54688 -0.45312,1 -1,1 h -4 v -6.21875 h 2 l 0.33594,-2.30469 h -2.33594 v -1.8125 c 0,-0.65625 0.33594,-1.03125 1,-1.03125 h 1.5 v -2.07812 c 0,0 -0.67188,-0.10938 -1.64062,-0.10938 -2.19531,0 -3.30469,1.21875 -3.30469,3.03906 v 1.99219 h -2 v 2.30469 h 2 V 192 h -7.55469 c -0.54688,0 -1,-0.45312 -1,-1 v -14 c 0,-0.54688 0.45312,-1 1,-1 h 14 c 0.54687,0 1,0.45312 1,1 z"
           id="XMLID_132_" /></g><path
         style="fill:#3b5998"
         inkscape:connector-curvature="0"
         id="path50"
         d="M 13,192 H 3 c -0.55,0 -1,0.45 -1,1 v 14.49904 c 0,0.42392 0.49443,0.6555 0.82009,0.38411 l 4.85982,-4.04984 c 0.18542,-0.15453 0.45476,-0.15453 0.64018,0 l 4.85982,4.04984 C 13.50557,208.15454 14,207.92296 14,207.49904 V 193 c 0,-0.55 -0.45,-1 -1,-1 z" /><path
         inkscape:connector-curvature="0"
         id="path52"
         d="M 29,192 H 19 c -0.55,0 -1,0.45 -1,1 v 14.49904 c 0,0.42392 0.49443,0.6555 0.82009,0.38411 l 4.85982,-4.04984 c 0.18542,-0.15453 0.45476,-0.15453 0.64018,0 l 4.85982,4.04984 C 29.50557,208.15454 30,207.92296 30,207.49904 V 193 c 0,-0.55 -0.45,-1 -1,-1 z" /><path
         style="fill:#ffffff"
         inkscape:connector-curvature="0"
         id="path54"
         d="M 45,192 H 35 c -0.55,0 -1,0.45 -1,1 v 14.49904 c 0,0.42392 0.49443,0.6555 0.82009,0.38411 l 4.85982,-4.04984 c 0.18542,-0.15453 0.45476,-0.15453 0.64018,0 l 4.85982,4.04984 C 45.50557,208.15454 46,207.92296 46,207.49904 V 193 c 0,-0.55 -0.45,-1 -1,-1 z" /><rect
         style="fill:none"
         y="0"
         id="rect56"
         height="351.92224"
         width="48.154289"
         x="-0.15429001" /></g><g
       id="rss"><g
         id="XMLID_147_"><circle
           d="m 3.9975899,174 c 0,1.10457 -0.8954305,2 -2,2 -1.10456945,0 -1.99999995,-0.89543 -1.99999995,-2 0,-1.10457 0.8954305,-2 1.99999995,-2 1.1045695,0 2,0.89543 2,2 z"
           style="fill:#ff6600"
           sodipodi:ry="2"
           sodipodi:rx="2"
           sodipodi:cy="174"
           sodipodi:cx="1.9975899"
           r="2"
           cy="174"
           cx="1.9975899"
           id="XMLID_183_" /><path
           style="fill:#ff6600"
           inkscape:connector-curvature="0"
           d="m -0.00241,163 c 7.2,0 13,5.8 13,13 h 3 c 0,-8.8 -7.2,-16 -16,-16 v 3 z m 0,3 v 3 c 3.9,0 7,3.10001 7,7 h 3 c 0,-5.5 -4.5,-10 -10,-10 z"
           id="XMLID_148_" /></g><circle
         d="m 19.997589,174 c 0,1.10457 -0.89543,2 -2,2 -1.104569,0 -2,-0.89543 -2,-2 0,-1.10457 0.895431,-2 2,-2 1.10457,0 2,0.89543 2,2 z"
         sodipodi:ry="2"
         sodipodi:rx="2"
         sodipodi:cy="174"
         sodipodi:cx="17.997589"
         r="2"
         cy="174"
         cx="17.997589"
         id="XMLID_98_" /><path
         inkscape:connector-curvature="0"
         d="m 15.99759,163 c 7.2,0 13,5.8 13,13 h 3 c 0,-8.8 -7.2,-16 -16,-16 v 3 z m 0,3 v 3 c 3.9,0 7,3.10001 7,7 h 3 c 0,-5.5 -4.5,-10 -10,-10 z"
         id="XMLID_88_" /><g
         id="XMLID_10_"><circle
           d="m 35.997589,174 c 0,1.10457 -0.89543,2 -2,2 -1.104569,0 -2,-0.89543 -2,-2 0,-1.10457 0.895431,-2 2,-2 1.10457,0 2,0.89543 2,2 z"
           style="fill:#ffffff"
           sodipodi:ry="2"
           sodipodi:rx="2"
           sodipodi:cy="174"
           sodipodi:cx="33.997589"
           r="2"
           cy="174"
           cx="33.997589"
           id="XMLID_57_" /><path
           style="fill:#ffffff"
           inkscape:connector-curvature="0"
           d="m 31.99759,163 c 7.2,0 13,5.8 13,13 h 3 c 0,-8.8 -7.2,-16 -16,-16 v 3 z m 0,3 v 3 c 3.9,0 7,3.10001 7,7 h 3 c 0,-5.5 -4.5,-10 -10,-10 z"
           id="XMLID_11_" /></g><g
         id="g67"><path
           style="fill:#aaaaaa"
           inkscape:connector-curvature="0"
           id="path69"
           d="m 15.76531,130.94638 c 0.15485,0.97655 0.23228,2.01167 0.23228,3.10681 0,1.08395 -0.07743,2.10794 -0.23228,3.07193 -0.09556,0.63057 -0.44363,1.20813 -1.0449,1.73267 -0.60127,0.52315 -1.23463,0.8203 -1.90147,0.89284 -1.30997,0.13115 -2.6011,0.20229 -3.87479,0.21346 l -3.41093,3.30351 c -0.10672,0.10742 -0.23786,0.16043 -0.39271,0.16043 -0.05999,0 -0.13672,-0.0112 -0.23228,-0.0349 -0.226,-0.0949 -0.339,-0.27342 -0.339,-0.53571 v -2.92824 l -1.39297,-0.10742 c -0.65498,-0.0711 -1.28555,-0.37805 -1.8931,-0.91934 -0.60685,-0.54268 -0.96399,-1.13419 -1.07141,-1.77731 -0.1423,-1.00026 -0.21414,-2.01727 -0.21414,-3.0538 0,-1.07141 0.07185,-2.11212 0.21414,-3.12494 0.10742,-0.64313 0.46456,-1.23463 1.07141,-1.77592 0.60755,-0.54268 1.23812,-0.84819 1.8931,-0.92075 C 4.84265,128.08371 6.44976,128 7.99759,128 c 1.54713,0 3.15424,0.0837 4.82134,0.24971 0.65429,0.0726 1.28555,0.37807 1.8931,0.92075 0.60686,0.54129 0.95772,1.13279 1.05328,1.77592 z" /></g><g
         id="g71"><path
           inkscape:connector-curvature="0"
           id="path73"
           d="m 31.76531,130.94638 c 0.15485,0.97655 0.23228,2.01167 0.23228,3.10681 0,1.08395 -0.07743,2.10794 -0.23228,3.07193 -0.09556,0.63057 -0.44363,1.20813 -1.0449,1.73267 -0.60127,0.52315 -1.23463,0.8203 -1.90147,0.89284 -1.30997,0.13115 -2.6011,0.20229 -3.87479,0.21346 l -3.41093,3.30351 c -0.10672,0.10742 -0.23786,0.16043 -0.39271,0.16043 -0.05999,0 -0.13671,-0.0112 -0.23228,-0.0349 -0.226,-0.0949 -0.339,-0.27342 -0.339,-0.53571 v -2.92824 l -1.39297,-0.10742 c -0.65498,-0.0711 -1.28555,-0.37805 -1.8931,-0.91934 -0.60685,-0.54268 -0.96399,-1.13419 -1.07141,-1.77731 -0.1423,-1.00026 -0.21414,-2.01727 -0.21414,-3.0538 0,-1.07141 0.07185,-2.11212 0.21414,-3.12494 0.10742,-0.64313 0.46456,-1.23463 1.07141,-1.77592 0.60755,-0.54268 1.23812,-0.84819 1.8931,-0.92075 1.6664,-0.166 3.27352,-0.24971 4.82134,-0.24971 1.54713,0 3.15424,0.0837 4.82134,0.24971 0.65429,0.0726 1.28555,0.37807 1.8931,0.92075 0.60685,0.54128 0.95771,1.13278 1.05327,1.77591 z" /></g><g
         id="g75"><path
           style="fill:#ffffff"
           inkscape:connector-curvature="0"
           id="path77"
           d="m 47.76531,130.94638 c 0.15485,0.97655 0.23228,2.01167 0.23228,3.10681 0,1.08395 -0.07743,2.10794 -0.23228,3.07193 -0.09556,0.63057 -0.44363,1.20813 -1.04491,1.73267 -0.60127,0.52315 -1.23463,0.8203 -1.90147,0.89284 -1.30997,0.13115 -2.6011,0.20229 -3.87479,0.21346 l -3.41093,3.30351 c -0.10672,0.10742 -0.23786,0.16043 -0.39271,0.16043 -0.05999,0 -0.13671,-0.0112 -0.23228,-0.0349 -0.226,-0.0949 -0.339,-0.27342 -0.339,-0.53571 v -2.92824 l -1.39297,-0.10742 c -0.65498,-0.0711 -1.28555,-0.37805 -1.8931,-0.91934 -0.60685,-0.54268 -0.96399,-1.13419 -1.07141,-1.77731 -0.1423,-1.00026 -0.21414,-2.01727 -0.21414,-3.0538 0,-1.07141 0.07185,-2.11212 0.21414,-3.12494 0.10742,-0.64313 0.46456,-1.23463 1.07141,-1.77592 0.60755,-0.54268 1.23812,-0.84819 1.8931,-0.92075 1.6664,-0.16599 3.27351,-0.2497 4.82134,-0.2497 1.54713,0 3.15424,0.0837 4.82135,0.24971 0.65429,0.0726 1.28555,0.37807 1.8931,0.92075 0.60685,0.54129 0.95771,1.13279 1.05327,1.77592 z" /></g><path
         style="fill:#6cc79f"
         inkscape:connector-curvature="0"
         id="path79"
         d="m 15.9325,312.49948 c -0.22729,-0.6778 -0.96219,-1.04327 -1.64146,-0.81619 l -1.62125,0.5416 -1.07784,-3.21191 1.62125,-0.54181 c 0.67947,-0.22708 1.04562,-0.9606 0.81793,-1.63861 -0.22749,-0.67783 -0.96239,-1.0433 -1.64166,-0.81644 l -1.62125,0.54202 -0.56203,-1.67438 c -0.22749,-0.6778 -0.96239,-1.04346 -1.64166,-0.81641 -0.67907,0.22708 -1.04542,0.9606 -0.81793,1.63861 l 0.56203,1.67438 -3.34295,1.11737 -0.56183,-1.67435 c -0.22729,-0.67783 -0.96219,-1.0433 -1.64146,-0.81644 -0.67927,0.22729 -1.04542,0.96082 -0.81793,1.63861 l 0.56183,1.67438 -1.62085,0.54181 c -0.67927,0.22708 -1.04542,0.9606 -0.81793,1.63861 0.17787,0.53024 0.66667,0.86954 1.19608,0.88312 0.14726,0.004 0.29772,-0.0176 0.44538,-0.0667 l 1.62105,-0.54181 1.07783,3.21194 -1.62125,0.54181 c -0.67907,0.22726 -1.04542,0.9606 -0.81793,1.63861 0.17807,0.53024 0.66667,0.86954 1.19628,0.88312 0.14726,0.004 0.29752,-0.0176 0.44538,-0.0667 l 1.62125,-0.54221 0.56183,1.67456 c 0.17807,0.53043 0.66667,0.86954 1.19628,0.88351 0.14726,0.004 0.29752,-0.018 0.44518,-0.0671 0.67927,-0.22705 1.04542,-0.96078 0.81793,-1.6384 l -0.56183,-1.67477 3.34295,-1.11737 0.56183,1.67438 c 0.17767,0.53043 0.66647,0.86972 1.19628,0.88309 0.14686,0.004 0.29732,-0.0171 0.44518,-0.0667 0.67927,-0.22708 1.04542,-0.9606 0.81793,-1.63861 l -0.56203,-1.67416 1.62125,-0.54184 c 0.67948,-0.22726 1.04563,-0.961 0.81814,-1.63861 z m -9.06526,1.66498 -1.07783,-3.21191 3.34295,-1.11758 1.07784,3.21173 -3.34296,1.11776 z" /><path
         inkscape:connector-curvature="0"
         id="path81"
         d="m 31.9325,312.49948 c -0.22729,-0.6778 -0.96219,-1.04327 -1.64146,-0.81619 l -1.62125,0.5416 -1.07784,-3.21191 1.62125,-0.54181 c 0.67947,-0.22708 1.04562,-0.9606 0.81793,-1.63861 -0.22749,-0.67783 -0.96239,-1.0433 -1.64166,-0.81644 l -1.62125,0.54202 -0.56203,-1.67438 c -0.22749,-0.6778 -0.96239,-1.04346 -1.64166,-0.81641 -0.67907,0.22708 -1.04542,0.9606 -0.81793,1.63861 l 0.56203,1.67438 -3.34295,1.11737 -0.56183,-1.67435 c -0.22729,-0.67783 -0.96219,-1.0433 -1.64146,-0.81644 -0.67927,0.22729 -1.04542,0.96082 -0.81793,1.63861 l 0.56182,1.67438 -1.62085,0.54181 c -0.67927,0.22708 -1.04542,0.9606 -0.81793,1.63861 0.17787,0.53024 0.66667,0.86954 1.19608,0.88312 0.14726,0.004 0.29772,-0.0176 0.44538,-0.0667 l 1.62105,-0.54181 1.07784,3.21194 -1.62125,0.54181 c -0.67907,0.22726 -1.04542,0.9606 -0.81793,1.63861 0.17807,0.53024 0.66667,0.86954 1.19628,0.88312 0.14726,0.004 0.29752,-0.0176 0.44538,-0.0667 l 1.62125,-0.54221 0.56182,1.67456 c 0.17807,0.53043 0.66667,0.86954 1.19628,0.88351 0.14726,0.004 0.29752,-0.018 0.44518,-0.0671 0.67927,-0.22705 1.04542,-0.96078 0.81793,-1.6384 l -0.56182,-1.67477 3.34295,-1.11737 0.56183,1.67438 c 0.17767,0.53043 0.66647,0.86972 1.19628,0.88309 0.14686,0.004 0.29732,-0.0171 0.44518,-0.0667 0.67927,-0.22708 1.04542,-0.9606 0.81793,-1.63861 l -0.56203,-1.67416 1.62125,-0.54184 c 0.67948,-0.22726 1.04563,-0.961 0.81814,-1.63861 z m -9.06526,1.66498 -1.07784,-3.21191 3.34295,-1.11758 1.07784,3.21173 -3.34295,1.11776 z" /><path
         style="fill:#ffffff"
         inkscape:connector-curvature="0"
         id="path83"
         d="m 47.9325,312.49948 c -0.22729,-0.6778 -0.96218,-1.04327 -1.64146,-0.81619 l -1.62125,0.5416 -1.07783,-3.21191 1.62125,-0.54181 c 0.67947,-0.22708 1.04562,-0.9606 0.81793,-1.63861 -0.22749,-0.67783 -0.96239,-1.0433 -1.64166,-0.81644 l -1.62125,0.54202 -0.56203,-1.67438 c -0.22749,-0.6778 -0.96239,-1.04346 -1.64166,-0.81641 -0.67907,0.22708 -1.04542,0.9606 -0.81793,1.63861 l 0.56203,1.67438 -3.34295,1.11737 -0.56182,-1.67435 c -0.22729,-0.67783 -0.96219,-1.0433 -1.64146,-0.81644 -0.67927,0.22729 -1.04542,0.96082 -0.81793,1.63861 l 0.56182,1.67438 -1.62085,0.54181 c -0.67927,0.22708 -1.04542,0.9606 -0.81793,1.63861 0.17787,0.53024 0.66667,0.86954 1.19608,0.88312 0.14726,0.004 0.29772,-0.0176 0.44538,-0.0667 l 1.62106,-0.54181 1.07783,3.21194 -1.62125,0.54181 c -0.67908,0.22726 -1.04542,0.9606 -0.81793,1.63861 0.17807,0.53024 0.66667,0.86954 1.19628,0.88312 0.14726,0.004 0.29752,-0.0176 0.44538,-0.0667 l 1.62125,-0.54221 0.56182,1.67456 c 0.17807,0.53043 0.66667,0.86954 1.19628,0.88351 0.14726,0.004 0.29752,-0.018 0.44518,-0.0671 0.67928,-0.22705 1.04542,-0.96078 0.81793,-1.6384 l -0.56183,-1.67477 3.34295,-1.11737 0.56182,1.67438 c 0.17767,0.53043 0.66647,0.86972 1.19628,0.88309 0.14686,0.004 0.29732,-0.0171 0.44518,-0.0667 0.67928,-0.22708 1.04542,-0.9606 0.81793,-1.63861 l -0.56203,-1.67416 1.62125,-0.54184 c 0.67948,-0.22726 1.04563,-0.961 0.81814,-1.63861 z m -9.06526,1.66498 -1.07784,-3.21191 3.34295,-1.11758 1.07783,3.21173 -3.34294,1.11776 z" /></g><g
       id="location"><g
         id="XMLID_114_"><path
           inkscape:connector-curvature="0"
           d="m 19.85648,113.80843 c 1.15039,-1.2002 2.5293,-1.7998 4.14062,-1.7998 1.61132,0 2.99219,0.59961 4.14258,1.7998 1.15039,1.20019 1.72461,2.64453 1.72461,4.33398 0,0.85547 -0.17188,1.76367 -0.51758,2.72461 -0.34375,0.96094 -0.75977,1.81934 -1.25,2.5752 -0.48828,0.75586 -0.97656,1.45215 -1.46484,2.0918 -0.49023,0.63867 -0.90625,1.12988 -1.25,1.47461 l -0.51758,0.5166 c -0.36719,0.32227 -0.66992,0.48048 -0.9082,0.47461 -0.23828,-0.005 -0.53125,-0.16309 -0.875,-0.47461 -0.13281,-0.13281 -0.31055,-0.31641 -0.5332,-0.5498 -0.22265,-0.23339 -0.61914,-0.70605 -1.19141,-1.41699 -0.57227,-0.71094 -1.07617,-1.42188 -1.50879,-2.13281 -0.43359,-0.71094 -0.82812,-1.55566 -1.18359,-2.5332 -0.35547,-0.97852 -0.5332,-1.89453 -0.5332,-2.75 -10e-6,-1.68947 0.57519,-3.1338 1.72558,-4.334 z m 2.18359,6.02539 c 0.53711,0.53906 1.19141,0.80859 1.95703,0.80859 0.76758,0 1.42188,-0.26953 1.9668,-0.80859 0.54492,-0.53906 0.81641,-1.19141 0.81641,-1.95898 0,-0.7666 -0.27148,-1.42188 -0.81641,-1.96582 -0.54492,-0.54492 -1.19922,-0.81738 -1.9668,-0.81738 -0.76562,0 -1.41992,0.27246 -1.95703,0.81738 -0.53906,0.54395 -0.80859,1.19922 -0.80859,1.96582 0,0.76758 0.26953,1.41992 0.80859,1.95898 z"
           id="XMLID_115_" /></g><g
         id="XMLID_113_"><path
           style="fill:#aaaaaa"
           inkscape:connector-curvature="0"
           d="m 3.85648,113.80843 c 1.15039,-1.2002 2.5293,-1.7998 4.14062,-1.7998 1.61132,0 2.99219,0.59961 4.14258,1.7998 1.15039,1.20019 1.72461,2.64453 1.72461,4.33398 0,0.85547 -0.17188,1.76367 -0.51758,2.72461 -0.34375,0.96094 -0.75977,1.81934 -1.25,2.5752 -0.48828,0.75586 -0.97656,1.45215 -1.46484,2.0918 -0.49023,0.63867 -0.90625,1.12988 -1.25,1.47461 l -0.51758,0.5166 c -0.36719,0.32227 -0.66992,0.48048 -0.9082,0.47461 -0.23828,-0.005 -0.53125,-0.16309 -0.875,-0.47461 -0.13281,-0.13281 -0.31055,-0.31641 -0.5332,-0.5498 -0.22265,-0.23339 -0.61914,-0.70605 -1.19141,-1.41699 -0.57227,-0.71094 -1.07617,-1.42188 -1.50879,-2.13281 -0.43359,-0.71094 -0.82812,-1.55566 -1.18359,-2.5332 -0.35547,-0.97852 -0.5332,-1.89453 -0.5332,-2.75 -1e-5,-1.68947 0.57519,-3.1338 1.72558,-4.334 z m 2.18359,6.02539 c 0.53711,0.53906 1.19141,0.80859 1.95703,0.80859 0.76758,0 1.42188,-0.26953 1.9668,-0.80859 0.54492,-0.53906 0.81641,-1.19141 0.81641,-1.95898 0,-0.7666 -0.27148,-1.42188 -0.81641,-1.96582 -0.54492,-0.54492 -1.19922,-0.81738 -1.9668,-0.81738 -0.76562,0 -1.41992,0.27246 -1.95703,0.81738 -0.53906,0.54395 -0.80859,1.19922 -0.80859,1.96582 0,0.76758 0.26953,1.41992 0.80859,1.95898 z"
           id="XMLID_118_" /></g><g
         id="XMLID_121_"><path
           style="fill:#ffffff"
           inkscape:connector-curvature="0"
           d="m 35.85648,113.80843 c 1.15039,-1.2002 2.5293,-1.7998 4.14062,-1.7998 1.61132,0 2.99219,0.59961 4.14258,1.7998 1.15039,1.20019 1.72461,2.64453 1.72461,4.33398 0,0.85547 -0.17188,1.76367 -0.51758,2.72461 -0.34375,0.96094 -0.75977,1.81934 -1.25,2.5752 -0.48828,0.75586 -0.97656,1.45215 -1.46484,2.0918 -0.49023,0.63867 -0.90625,1.12988 -1.25,1.47461 l -0.51758,0.5166 c -0.36719,0.32227 -0.66992,0.48048 -0.9082,0.47461 -0.23828,-0.005 -0.53125,-0.16309 -0.875,-0.47461 -0.13281,-0.13281 -0.31055,-0.31641 -0.5332,-0.5498 -0.22265,-0.23339 -0.61914,-0.70605 -1.19141,-1.41699 -0.57227,-0.71094 -1.07617,-1.42188 -1.50879,-2.13281 -0.43359,-0.71094 -0.82812,-1.55566 -1.18359,-2.5332 -0.35547,-0.97852 -0.5332,-1.89453 -0.5332,-2.75 -10e-6,-1.68947 0.57519,-3.1338 1.72558,-4.334 z m 2.18359,6.02539 c 0.53711,0.53906 1.19141,0.80859 1.95703,0.80859 0.76758,0 1.42188,-0.26953 1.9668,-0.80859 0.54492,-0.53906 0.81641,-1.19141 0.81641,-1.95898 0,-0.7666 -0.27148,-1.42188 -0.81641,-1.96582 -0.54492,-0.54492 -1.19922,-0.81738 -1.9668,-0.81738 -0.76562,0 -1.41992,0.27246 -1.95703,0.81738 -0.53906,0.54395 -0.80859,1.19922 -0.80859,1.96582 0,0.76758 0.26953,1.41992 0.80859,1.95898 z"
           id="XMLID_122_" /></g></g><g
       id="notification"><g
         id="XMLID_86_"><path
           style="fill:#aaaaaa"
           inkscape:connector-curvature="0"
           d="m 15.07086,107.43359 c 0.31152,0.25586 0.43945,0.58301 0.38379,0.9834 -0.05566,0.39941 -0.26172,0.67773 -0.61719,0.83301 l -0.08301,0.0332 c -0.05566,0.0225 -0.125,0.0479 -0.20801,0.0752 -0.08398,0.0273 -0.18945,0.0644 -0.31738,0.1084 -0.12793,0.0439 -0.26953,0.0889 -0.4248,0.13281 -0.15527,0.0449 -0.32812,0.0918 -0.5166,0.1416 -0.18848,0.0508 -0.39453,0.10059 -0.61621,0.15039 -0.22266,0.0498 -0.45605,0.0996 -0.7002,0.15039 -0.24512,0.0498 -0.51172,0.0937 -0.7998,0.13281 -0.28906,0.0391 -0.58398,0.0752 -0.88379,0.1084 -0.14453,0.5 -0.42773,0.91113 -0.84961,1.2334 C 9.0152,111.83887 8.53766,112 8.00445,112 7.47124,112 6.99371,111.83887 6.57086,111.5166 6.14898,111.19433 5.86578,110.7832 5.72125,110.2832 3.97613,110.10547 2.46539,109.76074 1.18756,109.25 c -0.37744,-0.16699 -0.59424,-0.4502 -0.6499,-0.84961 -0.0332,-0.40039 0.1001,-0.72266 0.3999,-0.9668 0.05566,-0.0332 0.15039,-0.11426 0.28369,-0.24219 0.1333,-0.12695 0.32178,-0.3584 0.56641,-0.69141 0.24414,-0.33301 0.47266,-0.7002 0.68359,-1.09961 0.21094,-0.40039 0.39453,-0.91699 0.5498,-1.55078 0.15527,-0.63281 0.2334,-1.29395 0.2334,-1.9834 0,-0.93262 0.09668,-1.75488 0.29199,-2.46582 0.19434,-0.71094 0.44434,-1.27832 0.75,-1.7002 0.30469,-0.42188 0.67188,-0.76367 1.09961,-1.02539 0.42773,-0.26074 0.84961,-0.43848 1.2666,-0.5332 C 7.07965,96.04785 7.52692,96 8.00445,96 c 0.47753,0 0.9248,0.04785 1.3418,0.1416 0.41699,0.09473 0.83887,0.27246 1.2666,0.5332 0.42773,0.26172 0.79395,0.60352 1.09961,1.02539 0.30566,0.42187 0.55566,0.98926 0.75,1.7002 0.19434,0.71094 0.29199,1.5332 0.29199,2.46582 0,0.68945 0.07715,1.35059 0.2334,1.9834 0.15527,0.63379 0.33887,1.15332 0.5498,1.55859 0.21094,0.40625 0.43848,0.77246 0.68359,1.10059 0.24414,0.32715 0.43359,0.55566 0.56641,0.68262 0.1338,0.12793 0.22755,0.20898 0.28321,0.24218 z"
           id="XMLID_87_" /></g><g
         id="XMLID_85_"><path
           inkscape:connector-curvature="0"
           d="m 31.07086,107.43359 c 0.31152,0.25586 0.43945,0.58301 0.38379,0.9834 -0.05566,0.39941 -0.26172,0.67773 -0.61719,0.83301 l -0.08301,0.0332 c -0.05566,0.0225 -0.125,0.0479 -0.20801,0.0752 -0.08398,0.0273 -0.18945,0.0644 -0.31738,0.1084 -0.12793,0.0439 -0.26953,0.0889 -0.4248,0.13281 -0.15527,0.0449 -0.32812,0.0918 -0.5166,0.1416 -0.18848,0.0508 -0.39453,0.10059 -0.61621,0.15039 -0.22266,0.0498 -0.45605,0.0996 -0.7002,0.15039 -0.24512,0.0498 -0.51172,0.0937 -0.7998,0.13281 -0.28906,0.0391 -0.58398,0.0752 -0.88379,0.1084 -0.14453,0.5 -0.42773,0.91113 -0.84961,1.2334 C 25.0152,111.83887 24.53766,112 24.00446,112 c -0.5332,0 -1.01074,-0.16113 -1.43359,-0.4834 -0.42188,-0.32227 -0.70508,-0.7334 -0.84961,-1.2334 -1.74512,-0.17773 -3.25586,-0.52246 -4.53369,-1.0332 -0.37744,-0.16699 -0.59424,-0.4502 -0.6499,-0.84961 -0.0332,-0.40039 0.1001,-0.72266 0.3999,-0.9668 0.05566,-0.0332 0.15039,-0.11426 0.28369,-0.24219 0.1333,-0.12695 0.32178,-0.3584 0.56641,-0.69141 0.24414,-0.33301 0.47266,-0.7002 0.68359,-1.09961 0.21094,-0.40039 0.39453,-0.91699 0.5498,-1.55078 0.15527,-0.63281 0.2334,-1.29395 0.2334,-1.9834 0,-0.93262 0.09668,-1.75488 0.29199,-2.46582 0.19434,-0.71094 0.44434,-1.27832 0.75,-1.7002 0.30469,-0.42188 0.67188,-0.76367 1.09961,-1.02539 0.42773,-0.26074 0.84961,-0.43848 1.2666,-0.5332 C 23.07965,96.04785 23.52692,96 24.00446,96 c 0.47754,0 0.9248,0.04785 1.3418,0.1416 0.41699,0.09473 0.83887,0.27246 1.2666,0.5332 0.42773,0.26172 0.79395,0.60352 1.09961,1.02539 0.30566,0.42187 0.55566,0.98926 0.75,1.7002 0.19434,0.71094 0.29199,1.5332 0.29199,2.46582 0,0.68945 0.07715,1.35059 0.2334,1.9834 0.15527,0.63379 0.33887,1.15332 0.5498,1.55859 0.21094,0.40625 0.43848,0.77246 0.68359,1.10059 0.24414,0.32715 0.43359,0.55566 0.56641,0.68262 0.13379,0.12793 0.22754,0.20898 0.2832,0.24218 z"
           id="XMLID_107_" /></g><g
         id="XMLID_109_"><path
           style="fill:#ffffff"
           inkscape:connector-curvature="0"
           d="m 47.60114,107.43359 c 0.31152,0.25586 0.43945,0.58301 0.38379,0.9834 -0.05566,0.39941 -0.26172,0.67773 -0.61719,0.83301 l -0.08301,0.0332 c -0.05566,0.0225 -0.125,0.0479 -0.20801,0.0752 -0.08398,0.0273 -0.18945,0.0644 -0.31738,0.1084 -0.12793,0.0439 -0.26953,0.0889 -0.4248,0.13281 -0.15527,0.0449 -0.32812,0.0918 -0.5166,0.1416 -0.18848,0.0508 -0.39453,0.10059 -0.61621,0.15039 -0.22266,0.0498 -0.45605,0.0996 -0.7002,0.15039 -0.24512,0.0498 -0.51172,0.0937 -0.7998,0.13281 -0.28906,0.0391 -0.58398,0.0752 -0.88379,0.1084 -0.14453,0.5 -0.42773,0.91113 -0.84961,1.2334 -0.42285,0.32227 -0.90039,0.4834 -1.43359,0.4834 -0.5332,0 -1.01074,-0.16113 -1.43359,-0.4834 -0.42188,-0.32227 -0.70508,-0.7334 -0.84961,-1.2334 -1.74512,-0.17773 -3.25586,-0.52246 -4.53369,-1.0332 -0.37744,-0.16699 -0.59424,-0.4502 -0.6499,-0.84961 -0.0332,-0.40039 0.1001,-0.72266 0.3999,-0.9668 0.05566,-0.0332 0.15039,-0.11426 0.28369,-0.24219 0.1333,-0.12695 0.32178,-0.3584 0.56641,-0.69141 0.24414,-0.33301 0.47266,-0.7002 0.68359,-1.09961 0.21094,-0.40039 0.39453,-0.91699 0.5498,-1.55078 0.15527,-0.63281 0.2334,-1.29395 0.2334,-1.9834 0,-0.93262 0.09668,-1.75488 0.29199,-2.46582 0.19434,-0.71094 0.44434,-1.27832 0.75,-1.7002 0.30469,-0.42188 0.67188,-0.76367 1.09961,-1.02539 0.42773,-0.26074 0.84961,-0.43848 1.2666,-0.5332 C 39.60993,96.04785 40.0572,96 40.53474,96 c 0.47754,0 0.9248,0.04785 1.3418,0.1416 0.41699,0.09473 0.83887,0.27246 1.2666,0.5332 0.42773,0.26172 0.79395,0.60352 1.09961,1.02539 0.30566,0.42187 0.55566,0.98926 0.75,1.7002 0.19434,0.71094 0.29199,1.5332 0.29199,2.46582 0,0.68945 0.07715,1.35059 0.2334,1.9834 0.15527,0.63379 0.33887,1.15332 0.5498,1.55859 0.21094,0.40625 0.43848,0.77246 0.68359,1.10059 0.24414,0.32715 0.43359,0.55566 0.56641,0.68262 0.13379,0.12793 0.22754,0.20898 0.2832,0.24218 z"
           id="XMLID_110_" /></g></g><g
       id="time"><g
         id="XMLID_14_"><path
           style="fill:#aaaaaa"
           inkscape:connector-curvature="0"
           d="M 3.98929,81.0752 C 5.21683,80.3584 6.55325,80 7.99759,80 c 1.44434,0 2.78027,0.3584 4.0083,1.0752 1.22754,0.7168 2.2002,1.68848 2.9165,2.91602 0.7168,1.22852 1.0752,2.56445 1.0752,4.00879 0,1.44434 -0.3584,2.78027 -1.0752,4.00879 -0.71631,1.22754 -1.68896,2.19922 -2.9165,2.91602 C 10.77786,95.6416 9.44193,96 7.99759,96 6.55325,96 5.21683,95.6416 3.98929,94.9248 2.76126,94.208 1.78909,93.23632 1.07279,92.00878 0.35599,90.78027 -0.00241,89.44434 -0.00241,88 c 0,-1.44434 0.3584,-2.78027 1.0752,-4.00879 0.7163,-1.22754 1.68847,-2.19922 2.9165,-2.91601 z m -0.1919,11.125 c 1.17773,1.17773 2.57764,1.7666 4.2002,1.7666 1.62207,0 3.02197,-0.58887 4.2002,-1.7666 1.17725,-1.17773 1.7666,-2.57812 1.7666,-4.2002 0,-1.62208 -0.58936,-3.02246 -1.7666,-4.2002 -1.17822,-1.17773 -2.57812,-1.7666 -4.2002,-1.7666 -1.62256,0 -3.02246,0.58887 -4.2002,1.7666 -1.17774,1.17773 -1.7666,2.57813 -1.7666,4.2002 0,1.62207 0.58887,3.02246 1.7666,4.2002 z m 7.26709,-1.06641 c -0.16699,0.15527 -0.36426,0.23242 -0.5918,0.23242 -0.22803,0 -0.42529,-0.07715 -0.5918,-0.23242 L 7.24758,89.0332 c -0.2334,-0.21094 -0.33887,-0.46094 -0.31689,-0.75 l 0.18359,-4.2334 c 0.01074,-0.24414 0.10547,-0.4502 0.2832,-0.61621 0.17773,-0.16699 0.38867,-0.24414 0.6333,-0.2334 0.2334,0.01074 0.43066,0.09961 0.5918,0.2666 0.16114,0.16699 0.24707,0.36133 0.2583,0.58301 l 0.1665,3.7832 2.06689,2.0332 c 0.1665,0.17871 0.24414,0.39258 0.2334,0.64258 -0.01121,0.25001 -0.10594,0.45802 -0.28319,0.62501 z"
           id="XMLID_15_" /></g><g
         id="XMLID_91_"><path
           inkscape:connector-curvature="0"
           d="M 19.9917,81.0752 C 21.21924,80.3584 22.55566,80 24,80 c 1.44434,0 2.78027,0.3584 4.0083,1.0752 1.22754,0.7168 2.2002,1.68848 2.9165,2.91602 C 31.6416,85.21973 32,86.55566 32,88 c 0,1.44434 -0.3584,2.78027 -1.0752,4.00879 -0.71631,1.22754 -1.68896,2.19922 -2.9165,2.91602 C 26.78027,95.6416 25.44434,96 24,96 22.55566,96 21.21924,95.6416 19.9917,94.9248 18.76367,94.208 17.7915,93.23632 17.0752,92.00878 16.3584,90.78027 16,89.44434 16,88 c 0,-1.44434 0.3584,-2.78027 1.0752,-4.00879 0.7163,-1.22754 1.68847,-2.19922 2.9165,-2.91601 z m -0.1919,11.125 c 1.17773,1.17773 2.57764,1.7666 4.2002,1.7666 1.62207,0 3.02197,-0.58887 4.2002,-1.7666 1.17725,-1.17773 1.7666,-2.57812 1.7666,-4.2002 0,-1.62208 -0.58936,-3.02246 -1.7666,-4.2002 C 27.02198,82.62207 25.62208,82.0332 24,82.0332 c -1.62256,0 -3.02246,0.58887 -4.2002,1.7666 -1.17774,1.17773 -1.7666,2.57813 -1.7666,4.2002 0,1.62207 0.58887,3.02246 1.7666,4.2002 z m 7.26709,-1.06641 c -0.16699,0.15527 -0.36426,0.23242 -0.5918,0.23242 -0.22803,0 -0.42529,-0.07715 -0.5918,-0.23242 L 23.25,89.0332 c -0.2334,-0.21094 -0.33887,-0.46094 -0.31689,-0.75 l 0.18359,-4.2334 c 0.01074,-0.24414 0.10547,-0.4502 0.2832,-0.61621 0.17773,-0.16699 0.38867,-0.24414 0.6333,-0.2334 0.2334,0.01074 0.43066,0.09961 0.5918,0.2666 0.16114,0.16699 0.24707,0.36133 0.2583,0.58301 l 0.1665,3.7832 2.06689,2.0332 c 0.1665,0.17871 0.24414,0.39258 0.2334,0.64258 -0.01122,0.25001 -0.10595,0.45802 -0.2832,0.62501 z"
           id="XMLID_92_" /></g><g
         id="XMLID_80_"><path
           style="fill:#ffffff"
           inkscape:connector-curvature="0"
           d="M 35.98929,81.0752 C 37.21683,80.3584 38.55325,80 39.99759,80 c 1.44434,0 2.78027,0.3584 4.0083,1.0752 1.22754,0.7168 2.2002,1.68848 2.9165,2.91602 0.7168,1.22852 1.0752,2.56445 1.0752,4.00879 0,1.44434 -0.3584,2.78027 -1.0752,4.00879 -0.71631,1.22754 -1.68896,2.19922 -2.9165,2.91602 C 42.77786,95.6416 41.44193,96 39.99759,96 c -1.44434,0 -2.78076,-0.3584 -4.0083,-1.0752 -1.22803,-0.7168 -2.2002,-1.68848 -2.9165,-2.91602 -0.7168,-1.22852 -1.0752,-2.56445 -1.0752,-4.00879 0,-1.44434 0.3584,-2.78027 1.0752,-4.00879 0.7163,-1.22753 1.68847,-2.19921 2.9165,-2.916 z m -0.1919,11.125 c 1.17773,1.17773 2.57764,1.7666 4.2002,1.7666 1.62207,0 3.02197,-0.58887 4.2002,-1.7666 1.17725,-1.17773 1.7666,-2.57812 1.7666,-4.2002 0,-1.62208 -0.58936,-3.02246 -1.7666,-4.2002 -1.17822,-1.17773 -2.57812,-1.7666 -4.2002,-1.7666 -1.62256,0 -3.02246,0.58887 -4.2002,1.7666 -1.17774,1.17773 -1.7666,2.57812 -1.7666,4.2002 0,1.62208 0.58887,3.02246 1.7666,4.2002 z m 7.26709,-1.06641 c -0.16699,0.15527 -0.36426,0.23242 -0.5918,0.23242 -0.22803,0 -0.42529,-0.07715 -0.5918,-0.23242 l -2.6333,-2.10059 c -0.2334,-0.21094 -0.33887,-0.46094 -0.31689,-0.75 l 0.18359,-4.2334 c 0.01074,-0.24414 0.10547,-0.4502 0.2832,-0.61621 0.17773,-0.16699 0.38867,-0.24414 0.6333,-0.2334 0.2334,0.01074 0.43066,0.09961 0.5918,0.2666 0.16114,0.16699 0.24707,0.36133 0.2583,0.58301 l 0.1665,3.7832 2.06689,2.0332 c 0.1665,0.17871 0.24414,0.39258 0.2334,0.64258 -0.01121,0.25001 -0.10594,0.45802 -0.28319,0.62501 z"
           id="XMLID_81_" /></g></g><g
       id="share"><g
         id="XMLID_133_"><path
           style="fill:#aaaaaa"
           inkscape:connector-curvature="0"
           d="m 16,77 c 0,1.65625 -1.34375,3 -3,3 -1.65625,0 -3,-1.34375 -3,-3 V 76.9922 L 4.80469,74.39844 C 4.30469,74.77344 3.67969,75 3,75 1.34375,75 0,73.65625 0,72 c 0,-1.65625 1.34375,-3 3,-3 0.67969,0 1.30469,0.22656 1.80469,0.60156 L 10,67.00781 V 67 c 0,-1.65625 1.34375,-3 3,-3 1.65625,0 3,1.34375 3,3 0,1.65625 -1.34375,3 -3,3 -0.67969,0 -1.30469,-0.22656 -1.80469,-0.60156 L 5.98438,72 11.19532,74.60156 C 11.69531,74.22656 12.32031,74 13,74 c 1.65625,0 3,1.34375 3,3 z"
           id="XMLID_134_" /></g><g
         id="XMLID_72_"><path
           style="fill:#ffffff"
           inkscape:connector-curvature="0"
           d="m 47.99759,77 c 0,1.65625 -1.34375,3 -3,3 -1.65625,0 -3,-1.34375 -3,-3 v -0.0078 l -5.19531,-2.59375 c -0.5,0.375 -1.125,0.60156 -1.80469,0.60156 -1.65625,0 -3,-1.34375 -3,-3 0,-1.65625 1.34375,-3 3,-3 0.67969,0 1.30469,0.22656 1.80469,0.60156 l 5.19531,-2.59375 V 67 c 0,-1.65625 1.34375,-3 3,-3 1.65625,0 3,1.34375 3,3 0,1.65625 -1.34375,3 -3,3 C 44.3179,70 43.6929,69.77344 43.1929,69.39844 L 37.98196,72 43.1929,74.60156 C 43.6929,74.22656 44.3179,74 44.99759,74 c 1.65625,0 3,1.34375 3,3 z"
           id="XMLID_75_" /></g><g
         id="XMLID_59_"><path
           inkscape:connector-curvature="0"
           d="m 32,77 c 0,1.65625 -1.34375,3 -3,3 -1.65625,0 -3,-1.34375 -3,-3 V 76.9922 L 20.80469,74.39844 C 20.30469,74.77344 19.67969,75 19,75 c -1.65625,0 -3,-1.34375 -3,-3 0,-1.65625 1.34375,-3 3,-3 0.67969,0 1.30469,0.22656 1.80469,0.60156 L 26,67.00781 V 67 c 0,-1.65625 1.34375,-3 3,-3 1.65625,0 3,1.34375 3,3 0,1.65625 -1.34375,3 -3,3 -0.67969,0 -1.30469,-0.22656 -1.80469,-0.60156 L 21.98438,72 27.19532,74.60156 C 27.69531,74.22656 28.32031,74 29,74 c 1.65625,0 3,1.34375 3,3 z"
           id="XMLID_60_" /></g></g><g
       id="email"><g
         id="XMLID_16_"><path
           style="fill:#aaaaaa"
           inkscape:connector-curvature="0"
           d="m 7.99881,57 -8,-6 c 0,-0.55469 0.44531,-1 1,-1 h 14 c 0.55469,0 1,0.44531 1,1 l -8,6 z m 0,1.79688 8,-6 V 61 c 0,0.55469 -0.44531,1 -1,1 h -14 c -0.55469,0 -1,-0.44531 -1,-1 v -8.20312 l 8,6 z"
           id="XMLID_17_" /></g><g
         id="XMLID_62_"><path
           inkscape:connector-curvature="0"
           d="m 24,57 -8,-6 c 0,-0.55469 0.44531,-1 1,-1 h 14 c 0.55469,0 1,0.44531 1,1 l -8,6 z m 0,1.79688 8,-6 V 61 c 0,0.55469 -0.44531,1 -1,1 H 17 c -0.55469,0 -1,-0.44531 -1,-1 v -8.20312 l 8,6 z"
           id="XMLID_63_" /></g><g
         id="XMLID_58_"><path
           style="fill:#ffffff"
           inkscape:connector-curvature="0"
           d="m 39.99759,57 -8,-6 c 0,-0.55469 0.44531,-1 1,-1 h 14 c 0.55469,0 1,0.44531 1,1 l -8,6 z m 0,1.79688 8,-6 V 61 c 0,0.55469 -0.44531,1 -1,1 h -14 c -0.55469,0 -1,-0.44531 -1,-1 v -8.20312 l 8,6 z"
           id="XMLID_66_" /></g></g><g
       id="user"><g
         id="XMLID_52_"
         style="fill:#000000"><path
           style="fill:#000000"
           inkscape:connector-curvature="0"
           d="m 47.0835,47.18359 -0.06689,0.0166 c -0.04443,0.01123 -0.11133,0.0249 -0.19971,0.0415 -0.08936,0.0166 -0.19482,0.03906 -0.31689,0.06689 -0.12256,0.02783 -0.2749,0.05566 -0.4585,0.08301 -0.18311,0.02783 -0.38037,0.05322 -0.59131,0.0752 -1.48926,0.17773 -3.30615,0.2666 -5.4502,0.2666 -3.25586,0 -5.6167,-0.18311 -7.0835,-0.5498 -0.1333,-0.04443 -0.23584,-0.125 -0.30811,-0.2417 -0.07227,-0.1167 -0.0918,-0.24707 -0.05859,-0.3916 0.15576,-0.7334 0.42773,-1.33887 0.81689,-1.81689 0.38867,-0.47754 0.91113,-0.92236 1.56641,-1.3335 0.2002,-0.12207 0.59473,-0.30518 1.18359,-0.5498 0.35547,-0.14453 0.6333,-0.26074 0.8335,-0.3501 0.19971,-0.08887 0.41357,-0.22217 0.6416,-0.3999 0.22754,-0.17773 0.375,-0.36084 0.44141,-0.5498 0.1333,-0.38916 -0.02783,-0.93896 -0.4834,-1.65039 -1.41113,-2.24414 -1.66113,-4.1499 -0.75,-5.71631 0.34424,-0.6001 0.80029,-1.06934 1.3667,-1.40869 0.56689,-0.33887 1.17773,-0.5083 1.8335,-0.5083 0.65527,0 1.26367,0.16943 1.8252,0.5083 0.56055,0.33936 1.01904,0.80859 1.375,1.40869 0.91064,1.55566 0.6665,3.46094 -0.7334,5.71631 -0.44482,0.7002 -0.61133,1.25 -0.5,1.65039 0.08887,0.27783 0.29395,0.51074 0.6167,0.69971 0.32178,0.18896 0.76074,0.38916 1.31641,0.6001 0.56689,0.24463 0.95557,0.42773 1.16699,0.5498 0.65527,0.41113 1.17725,0.85596 1.56641,1.3335 0.38867,0.47803 0.66113,1.0835 0.81689,1.81689 0.0332,0.14453 0.01367,0.2749 -0.05859,0.3916 -0.07226,0.1167 -0.17481,0.19726 -0.30811,0.24169 z"
           id="XMLID_53_" /></g><rect
         style="fill:#f42f42;fill-opacity:1;stroke:none"
         id="rect3130"
         width="20"
         height="2"
         x="-0.15429072"
         y="32.091164" /><rect
         y="46.091164"
         x="-0.15429072"
         height="2"
         width="20"
         id="rect3900"
         style="fill:#f42f42;fill-opacity:1;stroke:none" /><rect
         y="39.091175"
         x="-0.15429072"
         height="2"
         width="20"
         id="rect3904"
         style="fill:#f42f42;fill-opacity:1;stroke:none" /></g><g
       transform="translate(-3.6755106e-7,-3.2193434e-4)"
       id="search"><g
         id="XMLID_20_"><path
           style="fill:#aaaaaa"
           inkscape:connector-curvature="0"
           d="M 4.6167,17.9502 C 5.9165,16.6499 7.48877,16 9.3335,16 11.17774,16 12.75,16.6499 14.04981,17.9502 15.3501,19.25 16,20.82227 16,22.6665 c 0,1.84473 -0.6499,3.41699 -1.95019,4.7168 -1.2998,1.2998 -2.87207,1.9502 -4.71631,1.9502 -0.97803,0 -1.90039,-0.2002 -2.7666,-0.6001 L 2.54981,31.68311 C 2.19434,31.9502 1.79981,32.04981 1.3667,31.9834 0.93311,31.91651 0.5835,31.70557 0.3169,31.3501 0.10547,31.06104 0,30.7417 0,30.3916 0,30.0415 0.10547,29.72217 0.31689,29.4331 l 2.94971,-4 C 2.8667,24.56689 2.6665,23.64453 2.6665,22.6665 c 0,-1.84423 0.6504,-3.4165 1.9502,-4.7163 z m 1.4165,8.0166 c 0.91113,0.91113 2.01123,1.3667 3.30029,1.3667 1.28857,0 2.38867,-0.45557 3.2998,-1.3667 C 13.54442,25.05567 14,23.95557 14,22.6665 14,21.37793 13.54443,20.27783 12.6333,19.3667 11.72217,18.45557 10.62207,18 9.3335,18 c -1.28906,0 -2.38916,0.45557 -3.30029,1.3667 -0.91113,0.91113 -1.3667,2.01123 -1.3667,3.2998 -10e-6,1.28907 0.45556,2.38916 1.36669,3.3003 z"
           id="XMLID_21_" /></g><g
         id="XMLID_26_"><path
           inkscape:connector-curvature="0"
           d="M 20.6167,17.9502 C 21.9165,16.6499 23.48877,16 25.3335,16 27.17774,16 28.75,16.6499 30.04981,17.9502 31.3501,19.25 32,20.82227 32,22.6665 c 0,1.84473 -0.6499,3.41699 -1.9502,4.7168 -1.2998,1.2998 -2.87207,1.9502 -4.71631,1.9502 -0.97803,0 -1.90039,-0.2002 -2.7666,-0.6001 l -4.01709,2.94971 c -0.35547,0.26709 -0.75,0.3667 -1.18311,0.30029 -0.43359,-0.06689 -0.7832,-0.27783 -1.0498,-0.6333 C 16.10547,31.06104 16,30.7417 16,30.3916 c 0,-0.3501 0.10547,-0.66943 0.31689,-0.9585 l 2.94971,-4 c -0.3999,-0.86621 -0.6001,-1.78857 -0.6001,-2.7666 0,-1.84423 0.65039,-3.4165 1.9502,-4.7163 z m 1.4165,8.0166 c 0.91113,0.91113 2.01123,1.3667 3.30029,1.3667 1.28857,0 2.38867,-0.45557 3.2998,-1.3667 C 29.54442,25.05567 30,23.95557 30,22.6665 30,21.37793 29.54443,20.27783 28.6333,19.3667 27.72217,18.45557 26.62207,18 25.3335,18 c -1.28906,0 -2.38916,0.45557 -3.30029,1.3667 -0.91113,0.91113 -1.3667,2.01123 -1.3667,3.2998 -10e-6,1.28907 0.45556,2.38916 1.36669,3.3003 z"
           id="XMLID_31_" /></g><g
         id="XMLID_13_"><path
           style="fill:#ffffff"
           inkscape:connector-curvature="0"
           d="M 36.61429,17.9502 C 37.91409,16.6499 39.48636,16 41.33109,16 c 1.84424,0 3.4165,0.6499 4.71631,1.9502 1.30029,1.2998 1.9502,2.87207 1.9502,4.71631 0,1.84473 -0.6499,3.41699 -1.9502,4.7168 -1.2998,1.2998 -2.87207,1.9502 -4.71631,1.9502 -0.97803,0 -1.90039,-0.2002 -2.7666,-0.6001 l -4.01709,2.94971 c -0.35547,0.26709 -0.75,0.3667 -1.18311,0.30029 -0.43359,-0.06689 -0.7832,-0.27783 -1.0498,-0.6333 -0.21143,-0.28906 -0.31689,-0.6084 -0.31689,-0.9585 0,-0.3501 0.10547,-0.66943 0.31689,-0.9585 l 2.94971,-4 c -0.3999,-0.86621 -0.6001,-1.78857 -0.6001,-2.7666 -10e-6,-1.84424 0.65038,-3.41651 1.95019,-4.71631 z m 1.4165,8.0166 c 0.91113,0.91113 2.01123,1.3667 3.30029,1.3667 1.28857,0 2.38867,-0.45557 3.2998,-1.3667 0.91113,-0.91113 1.3667,-2.01123 1.3667,-3.30029 0,-1.28857 -0.45557,-2.38867 -1.3667,-3.2998 C 43.71975,18.45558 42.61966,18 41.33109,18 c -1.28906,0 -2.38916,0.45557 -3.30029,1.3667 -0.91113,0.91113 -1.3667,2.01123 -1.3667,3.2998 -10e-6,1.28907 0.45556,2.38916 1.36669,3.3003 z"
           id="XMLID_43_" /></g></g><g
       id="more"><circle
         d="M 10,8 C 10,9.1045695 9.1045695,10 8,10 6.8954305,10 6,9.1045695 6,8 6,6.8954305 6.8954305,6 8,6 c 1.1045695,0 2,0.8954305 2,2 z"
         style="fill:#aaaaaa"
         sodipodi:ry="2"
         sodipodi:rx="2"
         sodipodi:cy="8"
         sodipodi:cx="8"
         r="2"
         cy="8"
         cx="8"
         id="XMLID_1_" /><circle
         d="M 4,8 C 4,9.1045695 3.1045695,10 2,10 0.8954305,10 0,9.1045695 0,8 0,6.8954305 0.8954305,6 2,6 3.1045695,6 4,6.8954305 4,8 z"
         style="fill:#aaaaaa"
         sodipodi:ry="2"
         sodipodi:rx="2"
         sodipodi:cy="8"
         sodipodi:cx="2"
         r="2"
         cy="8"
         cx="2"
         id="XMLID_6_" /><circle
         d="m 16,8 c 0,1.1045695 -0.895431,2 -2,2 -1.104569,0 -2,-0.8954305 -2,-2 0,-1.1045695 0.895431,-2 2,-2 1.104569,0 2,0.8954305 2,2 z"
         style="fill:#aaaaaa"
         sodipodi:ry="2"
         sodipodi:rx="2"
         sodipodi:cy="8"
         sodipodi:cx="14"
         r="2"
         cy="8"
         cx="14"
         id="XMLID_7_" /><circle
         d="m 26,8 c 0,1.1045695 -0.895431,2 -2,2 -1.104569,0 -2,-0.8954305 -2,-2 0,-1.1045695 0.895431,-2 2,-2 1.104569,0 2,0.8954305 2,2 z"
         sodipodi:ry="2"
         sodipodi:rx="2"
         sodipodi:cy="8"
         sodipodi:cx="24"
         r="2"
         cy="8"
         cx="24"
         id="XMLID_71_" /><circle
         d="m 20,8 c 0,1.1045695 -0.895431,2 -2,2 -1.104569,0 -2,-0.8954305 -2,-2 0,-1.1045695 0.895431,-2 2,-2 1.104569,0 2,0.8954305 2,2 z"
         sodipodi:ry="2"
         sodipodi:rx="2"
         sodipodi:cy="8"
         sodipodi:cx="18"
         r="2"
         cy="8"
         cx="18"
         id="XMLID_70_" /><circle
         d="m 32,8 c 0,1.1045695 -0.895431,2 -2,2 -1.104569,0 -2,-0.8954305 -2,-2 0,-1.1045695 0.895431,-2 2,-2 1.104569,0 2,0.8954305 2,2 z"
         sodipodi:ry="2"
         sodipodi:rx="2"
         sodipodi:cy="8"
         sodipodi:cx="30"
         r="2"
         cy="8"
         cx="30"
         id="XMLID_69_" /><circle
         d="m 42,8 c 0,1.1045695 -0.895431,2 -2,2 -1.104569,0 -2,-0.8954305 -2,-2 0,-1.1045695 0.895431,-2 2,-2 1.104569,0 2,0.8954305 2,2 z"
         style="fill:#ffffff"
         sodipodi:ry="2"
         sodipodi:rx="2"
         sodipodi:cy="8"
         sodipodi:cx="40"
         r="2"
         cy="8"
         cx="40"
         id="XMLID_48_" /><circle
         d="m 36,8 c 0,1.1045695 -0.895431,2 -2,2 -1.104569,0 -2,-0.8954305 -2,-2 0,-1.1045695 0.895431,-2 2,-2 1.104569,0 2,0.8954305 2,2 z"
         style="fill:#ffffff"
         sodipodi:ry="2"
         sodipodi:rx="2"
         sodipodi:cy="8"
         sodipodi:cx="34"
         r="2"
         cy="8"
         cx="34"
         id="XMLID_47_" /><circle
         d="m 48,8 c 0,1.1045695 -0.895431,2 -2,2 -1.104569,0 -2,-0.8954305 -2,-2 0,-1.1045695 0.895431,-2 2,-2 1.104569,0 2,0.8954305 2,2 z"
         style="fill:#ffffff"
         sodipodi:ry="2"
         sodipodi:rx="2"
         sodipodi:cy="8"
         sodipodi:cx="46"
         r="2"
         cy="8"
         cx="46"
         id="XMLID_46_" /></g><g
       id="guides"><g
         id="g145"><path
           style="fill:#5f99cf"
           inkscape:connector-curvature="0"
           id="path147"
           d="m 15.23524,328.81351 c 0.08247,0.3074 0.11996,0.62228 0.11996,0.9447 0,2.8266 -3.29147,5.12088 -7.3552,5.12088 -4.06373,0 -7.3552,-2.29428 -7.3552,-5.12088 0,-0.32242 0.03749,-0.6373 0.11996,-0.9447 C 0.3074,328.49109 0,327.95877 0,327.35895 c 0,-0.9747 0.78725,-1.76193 1.76195,-1.76193 0.44986,0 0.86223,0.17242 1.16963,0.44986 1.30459,-0.85474 3.05155,-1.38708 4.97844,-1.40958 l 0.99719,-2.99905 c 0.05998,-0.18744 0.25492,-0.29993 0.44986,-0.26242 l 2.63918,0.53232 c 0.23992,-0.47235 0.71978,-0.78723 1.2821,-0.78723 0.79475,0 1.43955,0.64478 1.43955,1.43954 0,0.79474 -0.6448,1.43954 -1.43955,1.43954 -0.75726,0 -1.37957,-0.58481 -1.43205,-1.32709 l -2.30178,-0.46484 -0.81725,2.45923 c 1.67198,0.11246 3.1865,0.61481 4.34114,1.37958 0.3074,-0.27744 0.71978,-0.44986 1.16963,-0.44986 0.9747,0 1.76195,0.78723 1.76195,1.76193 10e-6,0.59982 -0.3074,1.13214 -0.76475,1.45456 z m -9.63449,0.9447 c 0.61481,0 1.11715,-0.50235 1.11715,-1.11716 0,-0.62231 -0.50234,-1.12466 -1.11715,-1.12466 -0.61481,0 -1.11715,0.50235 -1.11715,1.12466 0,0.61481 0.50234,1.11716 1.11715,1.11716 z m 5.1134,1.8594 c -0.11996,-0.14993 -0.34489,-0.17993 -0.50234,-0.06 -0.59232,0.46485 -1.37957,0.72727 -2.21181,0.72727 -0.83224,0 -1.61949,-0.26242 -2.21181,-0.72726 -0.15745,-0.11996 -0.38238,-0.09 -0.50234,0.06 -0.11996,0.15747 -0.08997,0.37488 0.05998,0.50235 0.71977,0.56231 1.66448,0.86972 2.65417,0.86972 0.98969,0 1.9344,-0.3074 2.65417,-0.86972 0.14995,-0.12748 0.17994,-0.34488 0.05998,-0.50236 z m 0.80225,-2.97656 c 0,-0.62231 -0.50234,-1.12466 -1.11715,-1.12466 -0.61481,0 -1.11715,0.50235 -1.11715,1.12466 0,0.61481 0.50234,1.11716 1.11715,1.11716 0.61481,0 1.11715,-0.50235 1.11715,-1.11716 z" /></g><g
         id="g149"><path
           inkscape:connector-curvature="0"
           id="path151"
           d="m 31.23524,328.81351 c 0.08248,0.3074 0.11996,0.62228 0.11996,0.9447 0,2.8266 -3.29147,5.12088 -7.3552,5.12088 -4.06373,0 -7.3552,-2.29428 -7.3552,-5.12088 0,-0.32242 0.03749,-0.6373 0.11996,-0.9447 C 16.3074,328.49109 16,327.95877 16,327.35895 c 0,-0.9747 0.78725,-1.76193 1.76195,-1.76193 0.44986,0 0.86223,0.17242 1.16964,0.44986 1.30459,-0.85474 3.05155,-1.38708 4.97844,-1.40958 l 0.99719,-2.99905 c 0.05998,-0.18744 0.25492,-0.29993 0.44986,-0.26242 l 2.63918,0.53232 c 0.23993,-0.47235 0.71977,-0.78723 1.2821,-0.78723 0.79475,0 1.43955,0.64478 1.43955,1.43954 0,0.79474 -0.6448,1.43954 -1.43955,1.43954 -0.75726,0 -1.37957,-0.58481 -1.43205,-1.32709 l -2.30178,-0.46484 -0.81724,2.45923 c 1.67198,0.11246 3.1865,0.61481 4.34114,1.37958 0.3074,-0.27744 0.71978,-0.44986 1.16963,-0.44986 0.9747,0 1.76195,0.78723 1.76195,1.76193 -1e-5,0.59982 -0.30742,1.13214 -0.76477,1.45456 z m -9.63449,0.9447 c 0.61481,0 1.11715,-0.50235 1.11715,-1.11716 0,-0.62231 -0.50234,-1.12466 -1.11715,-1.12466 -0.61481,0 -1.11715,0.50235 -1.11715,1.12466 0,0.61481 0.50234,1.11716 1.11715,1.11716 z m 5.1134,1.8594 c -0.11996,-0.14993 -0.34489,-0.17993 -0.50234,-0.06 -0.59231,0.46484 -1.37957,0.72726 -2.21181,0.72726 -0.83224,0 -1.61949,-0.26242 -2.21181,-0.72726 -0.15745,-0.11996 -0.38238,-0.09 -0.50234,0.06 -0.11996,0.15747 -0.08997,0.37488 0.05998,0.50235 0.71977,0.56232 1.66448,0.86972 2.65417,0.86972 0.98969,0 1.9344,-0.3074 2.65417,-0.86972 0.14995,-0.12747 0.17994,-0.34487 0.05998,-0.50235 z m 0.80225,-2.97656 c 0,-0.62231 -0.50234,-1.12466 -1.11715,-1.12466 -0.61481,0 -1.11715,0.50235 -1.11715,1.12466 0,0.61481 0.50234,1.11716 1.11715,1.11716 0.61481,0 1.11715,-0.50235 1.11715,-1.11716 z" /></g><g
         id="g153"><path
           style="fill:#ffffff"
           inkscape:connector-curvature="0"
           id="path155"
           d="m 47.23524,328.81351 c 0.08247,0.3074 0.11996,0.62228 0.11996,0.9447 0,2.8266 -3.29147,5.12088 -7.3552,5.12088 -4.06373,0 -7.3552,-2.29428 -7.3552,-5.12088 0,-0.32242 0.03749,-0.6373 0.11996,-0.9447 C 32.3074,328.49109 32,327.95877 32,327.35895 c 0,-0.9747 0.78726,-1.76193 1.76195,-1.76193 0.44986,0 0.86223,0.17242 1.16964,0.44986 1.30459,-0.85474 3.05154,-1.38708 4.97844,-1.40958 l 0.99719,-2.99905 c 0.05998,-0.18744 0.25492,-0.29993 0.44986,-0.26242 l 2.63918,0.53232 c 0.23993,-0.47235 0.71978,-0.78723 1.2821,-0.78723 0.79475,0 1.43955,0.64478 1.43955,1.43954 0,0.79474 -0.6448,1.43954 -1.43955,1.43954 -0.75726,0 -1.37957,-0.58481 -1.43205,-1.32709 l -2.30178,-0.46484 -0.81725,2.45923 c 1.67198,0.11246 3.1865,0.61481 4.34114,1.37958 0.3074,-0.27744 0.71977,-0.44986 1.16963,-0.44986 0.9747,0 1.76195,0.78723 1.76195,1.76193 0,0.59982 -0.3074,1.13214 -0.76476,1.45456 z m -9.63449,0.9447 c 0.61481,0 1.11715,-0.50235 1.11715,-1.11716 0,-0.62231 -0.50234,-1.12466 -1.11715,-1.12466 -0.61481,0 -1.11715,0.50235 -1.11715,1.12466 0,0.61481 0.50234,1.11716 1.11715,1.11716 z m 5.1134,1.8594 c -0.11996,-0.14993 -0.34489,-0.17993 -0.50234,-0.06 -0.59232,0.46484 -1.37957,0.72726 -2.21181,0.72726 -0.83224,0 -1.6195,-0.26242 -2.21181,-0.72726 -0.15745,-0.11996 -0.38238,-0.09 -0.50234,0.06 -0.11996,0.15747 -0.08997,0.37488 0.05998,0.50235 0.71977,0.56232 1.66448,0.86972 2.65417,0.86972 0.98969,0 1.93439,-0.3074 2.65417,-0.86972 0.14995,-0.12747 0.17994,-0.34487 0.05998,-0.50235 z m 0.80225,-2.97656 c 0,-0.62231 -0.50234,-1.12466 -1.11715,-1.12466 -0.61481,0 -1.11715,0.50235 -1.11715,1.12466 0,0.61481 0.50235,1.11716 1.11715,1.11716 0.6148,0 1.11715,-0.50235 1.11715,-1.11716 z" /></g><g
         id="g157"><path
           style="fill:#4dc247"
           inkscape:connector-curvature="0"
           id="path159"
           d="m 15.96113,343.96112 c 0,4.40039 -3.56074,7.96112 -7.96113,7.96112 -1.50049,0 -2.8999,-0.41205 -4.09718,-1.13507 L 0.11662,352 1.345,348.3382 C 0.5209,347.07871 0.03888,345.57822 0.03888,343.96112 0.03887,339.56073 3.59961,336 8,336 c 4.40039,0 7.96113,3.56073 7.96113,7.96112 z m -3.47522,2.24686 c -0.04665,-0.0933 -0.19436,-0.15549 -0.41205,-0.27213 -0.21769,-0.11661 -1.29057,-0.69971 -1.48494,-0.77744 -0.20214,-0.0855 -0.34985,-0.12439 -0.50535,0.0933 -0.1555,0.21768 -0.59864,0.69971 -0.73858,0.83963 -0.13217,0.14774 -0.26433,0.15552 -0.48202,0.0389 -0.21769,-0.11661 -0.92517,-0.38095 -1.7415,-1.16617 -0.63751,-0.6142 -1.05734,-1.36057 -1.17396,-1.586 -0.12439,-0.22546 0,-0.3421 0.10884,-0.44318 0.10884,-0.10104 0.23324,-0.25656 0.34985,-0.38095 0.11661,-0.12439 0.15549,-0.21768 0.23324,-0.3576 0.08552,-0.14774 0.05442,-0.27991 0,-0.38873 -0.05442,-0.11664 -0.45092,-1.22061 -0.62196,-1.67154 -0.17104,-0.45093 -0.35763,-0.38873 -0.48202,-0.38873 -0.13217,-0.008 -0.27988,-0.0311 -0.4276,-0.0389 -0.14772,-0.008 -0.38873,0.0389 -0.59864,0.25656 -0.21769,0.21768 -0.80855,0.7308 -0.84742,1.81924 -0.03887,1.09619 0.71526,2.17685 0.81633,2.33234 0.10884,0.14774 1.44606,2.5112 3.66181,3.49078 2.22352,0.9718 2.23907,0.67639 2.64334,0.65305 0.41205,-0.0233 1.32945,-0.48978 1.53936,-1.0029 0.20214,-0.50533 0.21769,-0.95626 0.16327,-1.04955 z" /></g><g
         id="g161"><path
           inkscape:connector-curvature="0"
           id="path163"
           d="m 31.96113,343.96112 c 0,4.40039 -3.56074,7.96112 -7.96113,7.96112 -1.50049,0 -2.8999,-0.41205 -4.09718,-1.13507 L 16.11662,352 17.345,348.3382 c -0.8241,-1.25949 -1.30612,-2.75998 -1.30612,-4.37708 C 16.03887,339.56073 19.59961,336 24,336 c 4.40039,0 7.96113,3.56073 7.96113,7.96112 z m -3.47522,2.24686 c -0.04665,-0.0933 -0.19436,-0.15549 -0.41205,-0.27213 -0.21769,-0.11661 -1.29057,-0.69971 -1.48494,-0.77744 -0.20214,-0.0855 -0.34985,-0.12439 -0.50534,0.0933 -0.15549,0.21768 -0.59864,0.69971 -0.73858,0.83963 -0.13217,0.14774 -0.26434,0.15552 -0.48202,0.0389 -0.21769,-0.11661 -0.92517,-0.38095 -1.7415,-1.16617 -0.63751,-0.6142 -1.05734,-1.36057 -1.17396,-1.586 -0.12439,-0.22546 0,-0.3421 0.10884,-0.44318 0.10884,-0.10104 0.23324,-0.25656 0.34985,-0.38095 0.11662,-0.12439 0.15549,-0.21768 0.23324,-0.3576 0.08552,-0.14774 0.05442,-0.27991 0,-0.38873 -0.05442,-0.11664 -0.45092,-1.22061 -0.62196,-1.67154 -0.17104,-0.45093 -0.35763,-0.38873 -0.48202,-0.38873 -0.13217,-0.008 -0.27988,-0.0311 -0.4276,-0.0389 -0.14772,-0.008 -0.38873,0.0389 -0.59864,0.25656 -0.21769,0.21768 -0.80855,0.7308 -0.84742,1.81924 -0.03887,1.09619 0.71526,2.17685 0.81633,2.33234 0.10884,0.14774 1.44606,2.5112 3.66181,3.49078 2.22352,0.9718 2.23907,0.67639 2.64334,0.65305 0.41205,-0.0233 1.32944,-0.48978 1.53936,-1.0029 0.20213,-0.50533 0.21768,-0.95626 0.16326,-1.04955 z" /></g><g
         id="g165"><path
           style="fill:#ffffff"
           inkscape:connector-curvature="0"
           id="path167"
           d="m 47.96113,343.96112 c 0,4.40039 -3.56074,7.96112 -7.96113,7.96112 -1.50048,0 -2.8999,-0.41205 -4.09718,-1.13507 L 32.11662,352 l 1.22837,-3.6618 c -0.8241,-1.25949 -1.30612,-2.75998 -1.30612,-4.37708 C 32.03887,339.56073 35.59961,336 40,336 c 4.40039,0 7.96113,3.56073 7.96113,7.96112 z m -3.47522,2.24686 c -0.04665,-0.0933 -0.19436,-0.15549 -0.41205,-0.27213 -0.21769,-0.11661 -1.29057,-0.69971 -1.48494,-0.77744 -0.20214,-0.0855 -0.34985,-0.12439 -0.50534,0.0933 -0.15549,0.21768 -0.59864,0.69971 -0.73858,0.83963 -0.13216,0.14774 -0.26433,0.15552 -0.48202,0.0389 -0.21769,-0.11661 -0.92517,-0.38095 -1.74149,-1.16617 -0.63751,-0.6142 -1.05734,-1.36057 -1.17396,-1.586 -0.12439,-0.22546 0,-0.3421 0.10884,-0.44318 0.10884,-0.10104 0.23323,-0.25656 0.34985,-0.38095 0.11662,-0.12439 0.15549,-0.21768 0.23323,-0.3576 0.08552,-0.14774 0.05442,-0.27991 0,-0.38873 -0.05442,-0.11664 -0.45092,-1.22061 -0.62196,-1.67154 -0.17104,-0.45093 -0.35763,-0.38873 -0.48202,-0.38873 -0.13217,-0.008 -0.27988,-0.0311 -0.4276,-0.0389 -0.14772,-0.008 -0.38873,0.0389 -0.59864,0.25656 -0.21769,0.21768 -0.80855,0.7308 -0.84742,1.81924 -0.03887,1.09619 0.71526,2.17685 0.81633,2.33234 0.10884,0.14774 1.44606,2.5112 3.66181,3.49078 2.22352,0.9718 2.23907,0.67639 2.64334,0.65305 0.41205,-0.0233 1.32945,-0.48978 1.53936,-1.0029 0.20213,-0.50533 0.21768,-0.95626 0.16326,-1.04955 z" /></g><g
         id="g169"><path
           style="fill:#aaaaaa"
           inkscape:connector-curvature="0"
           id="path171"
           d="m 14.83301,146.18359 c 0.18945,0.0439 0.3418,0.13867 0.45898,0.2832 0.11621,0.14453 0.1748,0.31152 0.1748,0.5 v 11.64941 c 0,0.18945 -0.05859,0.35645 -0.1748,0.5 -0.11719,0.14453 -0.26953,0.23926 -0.45898,0.28418 l -0.13281,0.0332 c -0.07812,0.0107 -0.18359,0.0273 -0.31641,0.0498 -0.13379,0.0225 -0.29492,0.0498 -0.4834,0.083 -0.18945,0.0332 -0.40625,0.0644 -0.65039,0.0918 -0.24414,0.0283 -0.50879,0.0586 -0.79199,0.0918 -0.2832,0.0332 -0.59375,0.0664 -0.93262,0.0996 -0.33984,0.0342 -0.68945,0.0615 -1.05078,0.084 -0.36035,0.0225 -0.75488,0.0391 -1.18262,0.0498 C 8.86425,159.99412 8.43359,160 8,160 7.56641,160 7.13574,159.994 6.70801,159.9834 6.28028,159.9727 5.88574,159.9561 5.52539,159.9336 5.16406,159.9111 4.81348,159.8838 4.47461,159.8496 4.13574,159.8164 3.8252,159.7832 3.54199,159.75 3.25878,159.7168 2.99414,159.6865 2.75,159.6582 2.50586,159.6309 2.28906,159.5996 2.09961,159.5664 1.91113,159.5332 1.75,159.5059 1.61621,159.4834 1.4834,159.4609 1.37793,159.4443 1.2998,159.4336 l -0.13281,-0.0332 c -0.18945,-0.0449 -0.3418,-0.13965 -0.45898,-0.28418 -0.11621,-0.14355 -0.1748,-0.31055 -0.1748,-0.5 V 146.9668 c 0,-0.18848 0.05859,-0.35547 0.1748,-0.5 0.11719,-0.14453 0.26953,-0.23926 0.45898,-0.2832 0.01074,0 0.07422,-0.0107 0.19141,-0.0332 0.11621,-0.0225 0.29688,-0.0527 0.54199,-0.0918 0.24414,-0.0391 0.5,-0.0752 0.7666,-0.1084 v 0.7168 c 0,0.38867 0.13867,0.70801 0.41602,0.95801 0.27832,0.25 0.61133,0.375 1,0.375 -0.2334,-0.21094 -0.34961,-0.47754 -0.34961,-0.7998 v -2.13379 c 0,-0.28809 0.10547,-0.53809 0.31641,-0.75 C 4.26074,144.10547 4.51074,144 4.7998,144 c 0.28906,0 0.53906,0.10547 0.75,0.31641 0.21094,0.21191 0.31641,0.46191 0.31641,0.75 v 0.58398 c 0.66699,-0.0342 1.37793,-0.0508 2.13379,-0.0508 0.47754,0 0.83301,0.006 1.06641,0.0166 v 1.05078 c 0,0.38867 0.13867,0.70801 0.41699,0.95801 0.27734,0.25 0.61133,0.375 1,0.375 -0.2334,-0.21094 -0.34961,-0.47754 -0.34961,-0.7998 v -2.13379 c 0,-0.28809 0.10547,-0.53809 0.31641,-0.75 0.21093,-0.21094 0.46093,-0.31641 0.75,-0.31641 0.28907,0 0.53906,0.10547 0.75,0.31641 0.21094,0.21191 0.31641,0.46191 0.31641,0.75 v 0.75 c 1.0664,0.11132 1.92187,0.23339 2.5664,0.36718 z M 8,158.4834 c 2.04395,0 4,-0.15527 5.86621,-0.4668 v -7.61621 H 2.13379 v 7.61621 C 4,158.32812 5.95508,158.4834 8,158.4834 z M 5.86621,156.7998 H 3.7334 v -2.13281 h 2.13281 v 2.13281 z m 3.2002,-5.333 v 2.13281 H 6.93359 v -2.13281 h 2.13282 z m 0,5.333 H 6.93359 v -2.13281 H 9.0664 v 2.13281 z m 3.20019,-5.333 v 2.13281 h -2.13281 v -2.13281 h 2.13281 z m 0,5.333 h -2.13281 v -2.13281 h 2.13281 v 2.13281 z" /></g><g
         id="g173"><path
           inkscape:connector-curvature="0"
           id="path175"
           d="m 30.83301,146.18359 c 0.18945,0.0439 0.3418,0.13867 0.45898,0.2832 0.11621,0.14453 0.1748,0.31152 0.1748,0.5 v 11.64941 c 0,0.18945 -0.05859,0.35645 -0.1748,0.5 -0.11719,0.14453 -0.26953,0.23926 -0.45898,0.28418 l -0.13281,0.0332 c -0.07812,0.0107 -0.18359,0.0273 -0.31641,0.0498 -0.13379,0.0225 -0.29492,0.0498 -0.4834,0.083 -0.18945,0.0332 -0.40625,0.0644 -0.65039,0.0918 -0.24414,0.0283 -0.50879,0.0586 -0.79199,0.0918 -0.2832,0.0332 -0.59375,0.0664 -0.93262,0.0996 -0.33984,0.0342 -0.68945,0.0615 -1.05078,0.084 -0.36035,0.0225 -0.75488,0.0391 -1.18262,0.0498 C 24.86425,159.99412 24.43359,160 24,160 c -0.43359,0 -0.86426,-0.006 -1.29199,-0.0166 -0.42773,-0.0107 -0.82227,-0.0273 -1.18262,-0.0498 -0.36133,-0.0225 -0.71191,-0.0498 -1.05078,-0.084 -0.33887,-0.0332 -0.64941,-0.0664 -0.93262,-0.0996 -0.28321,-0.0332 -0.54785,-0.0635 -0.79199,-0.0918 -0.24414,-0.0273 -0.46094,-0.0586 -0.65039,-0.0918 -0.18848,-0.0332 -0.34961,-0.0605 -0.4834,-0.083 -0.13281,-0.0225 -0.23828,-0.0391 -0.31641,-0.0498 l -0.13281,-0.0332 c -0.18945,-0.0449 -0.3418,-0.13965 -0.45898,-0.28418 -0.11621,-0.14355 -0.1748,-0.31055 -0.1748,-0.5 V 146.9668 c 0,-0.18848 0.05859,-0.35547 0.1748,-0.5 0.11719,-0.14453 0.26953,-0.23926 0.45898,-0.2832 0.01074,0 0.07422,-0.0107 0.19141,-0.0332 0.11621,-0.0225 0.29688,-0.0527 0.54199,-0.0918 0.24414,-0.0391 0.5,-0.0752 0.7666,-0.1084 v 0.7168 c 0,0.38867 0.13867,0.70801 0.41602,0.95801 0.27832,0.25 0.61133,0.375 1,0.375 -0.2334,-0.21094 -0.34961,-0.47754 -0.34961,-0.7998 v -2.13379 c 0,-0.28809 0.10547,-0.53809 0.31641,-0.75 C 20.26074,144.10547 20.51074,144 20.7998,144 c 0.28906,0 0.53906,0.10547 0.75,0.31641 0.21094,0.21191 0.31641,0.46191 0.31641,0.75 v 0.58398 c 0.66699,-0.0342 1.37793,-0.0508 2.13379,-0.0508 0.47754,0 0.83301,0.006 1.06641,0.0166 v 1.05078 c 0,0.38867 0.13867,0.70801 0.41699,0.95801 0.27734,0.25 0.61133,0.375 1,0.375 -0.2334,-0.21094 -0.34961,-0.47754 -0.34961,-0.7998 v -2.13379 c 0,-0.28809 0.10547,-0.53809 0.31641,-0.75 0.21093,-0.21094 0.46093,-0.31641 0.75,-0.31641 0.28907,0 0.53906,0.10547 0.75,0.31641 0.21094,0.21191 0.31641,0.46191 0.31641,0.75 v 0.75 c 1.0664,0.11132 1.92187,0.23339 2.5664,0.36718 z M 24,158.4834 c 2.04395,0 4,-0.15527 5.86621,-0.4668 v -7.61621 H 18.13379 v 7.61621 C 20,158.32812 21.95508,158.4834 24,158.4834 z m -2.13379,-1.6836 H 19.7334 v -2.13281 h 2.13281 v 2.13281 z m 3.2002,-5.333 v 2.13281 H 22.9336 v -2.13281 h 2.13281 z m 0,5.333 H 22.9336 v -2.13281 h 2.13281 v 2.13281 z m 3.20019,-5.333 v 2.13281 h -2.13281 v -2.13281 h 2.13281 z m 0,5.333 h -2.13281 v -2.13281 h 2.13281 v 2.13281 z" /></g><g
         id="g177"><path
           style="fill:#ffffff"
           inkscape:connector-curvature="0"
           id="path179"
           d="m 46.36621,146.18359 c 0.18945,0.0439 0.3418,0.13867 0.45898,0.2832 0.11621,0.14453 0.1748,0.31152 0.1748,0.5 v 11.64941 c 0,0.18945 -0.05859,0.35645 -0.1748,0.5 -0.11719,0.14453 -0.26953,0.23926 -0.45898,0.28418 l -0.13281,0.0332 c -0.07812,0.0107 -0.18359,0.0273 -0.31641,0.0498 -0.13379,0.0225 -0.29492,0.0498 -0.4834,0.083 -0.18945,0.0332 -0.40625,0.0644 -0.65039,0.0918 -0.24414,0.0283 -0.50879,0.0586 -0.79199,0.0918 -0.2832,0.0332 -0.59375,0.0664 -0.93262,0.0996 -0.33984,0.0342 -0.68945,0.0615 -1.05078,0.084 -0.36035,0.0225 -0.75488,0.0391 -1.18262,0.0498 C 40.39745,159.99412 39.9668,160 39.5332,160 c -0.4336,0 -0.86426,-0.006 -1.29199,-0.0166 -0.42773,-0.0107 -0.82227,-0.0273 -1.18262,-0.0498 -0.36133,-0.0225 -0.71191,-0.0498 -1.05078,-0.084 -0.33887,-0.0332 -0.64941,-0.0664 -0.93262,-0.0996 -0.28321,-0.0332 -0.54785,-0.0635 -0.79199,-0.0918 -0.24414,-0.0273 -0.46094,-0.0586 -0.65039,-0.0918 -0.18848,-0.0332 -0.34961,-0.0605 -0.4834,-0.083 -0.13281,-0.0225 -0.23828,-0.0391 -0.31641,-0.0498 l -0.13281,-0.0332 c -0.18945,-0.0449 -0.3418,-0.13965 -0.45898,-0.28418 -0.11621,-0.14355 -0.1748,-0.31055 -0.1748,-0.5 V 146.9668 c 0,-0.18848 0.05859,-0.35547 0.1748,-0.5 0.11719,-0.14453 0.26953,-0.23926 0.45898,-0.2832 0.01074,0 0.07422,-0.0107 0.19141,-0.0332 0.11621,-0.0225 0.29688,-0.0527 0.54199,-0.0918 0.24414,-0.0391 0.5,-0.0752 0.7666,-0.1084 v 0.7168 c 0,0.38867 0.13867,0.70801 0.41602,0.95801 0.27832,0.25 0.61133,0.375 1,0.375 -0.2334,-0.21094 -0.34961,-0.47754 -0.34961,-0.7998 v -2.13379 c 0,-0.28809 0.10547,-0.53809 0.31641,-0.75 0.21094,-0.21094 0.46094,-0.31641 0.75,-0.31641 0.28906,0 0.53906,0.10547 0.75,0.31641 0.21094,0.21191 0.31641,0.46191 0.31641,0.75 v 0.58398 c 0.66699,-0.0342 1.37793,-0.0508 2.13379,-0.0508 0.47754,0 0.83301,0.006 1.06641,0.0166 v 1.05078 c 0,0.38867 0.13867,0.70801 0.41699,0.95801 0.27734,0.25 0.61133,0.375 1,0.375 -0.2334,-0.21094 -0.34961,-0.47754 -0.34961,-0.7998 v -2.13379 c 0,-0.28809 0.10547,-0.53809 0.31641,-0.75 C 42.19434,144.10547 42.44434,144 42.7334,144 c 0.28906,0 0.53906,0.10547 0.75,0.31641 0.21094,0.21191 0.31641,0.46191 0.31641,0.75 v 0.75 c 1.0664,0.11132 1.92187,0.23339 2.5664,0.36718 z M 39.5332,158.4834 c 2.04395,0 4,-0.15527 5.86621,-0.4668 v -7.61621 H 33.66699 v 7.61621 c 1.86621,0.31152 3.82129,0.4668 5.86621,0.4668 z m -2.13379,-1.6836 H 35.2666 v -2.13281 h 2.13281 v 2.13281 z m 3.2002,-5.333 v 2.13281 H 38.4668 v -2.13281 h 2.13281 z m 0,5.333 H 38.4668 v -2.13281 h 2.13281 v 2.13281 z m 3.20019,-5.333 v 2.13281 h -2.13281 v -2.13281 h 2.13281 z m 0,5.333 h -2.13281 v -2.13281 h 2.13281 v 2.13281 z" /></g></g></g></svg>